# MagicaVoxel @ Ephtracy

# group
o 

# material
mtllib dog.mtl
usemtl palette

# normals
vn -1 0 0
vn 1 0 0
vn 0 0 1
vn 0 0 -1
vn 0 -1 0
vn 0 1 0

# texcoords
vt 0.845703 0.5
vt 0.876953 0.5
vt 0.908203 0.5
vt 0.939453 0.5

# verts
v -0.2 0 0.5
v -0.2 0 0.3
v -0.2 0 -0.1
v -0.2 0 -0.3
v -0.2 0.1 0.5
v -0.2 0.1 0.4
v -0.2 0.1 -0.1
v -0.2 0.1 -0.2
v -0.2 0.3 0.3
v -0.2 0.3 -0.2
v -0.2 0.6 0.4
v -0.2 0.6 -0.3
v -0.2 0.7 0.6
v -0.2 0.7 0.1
v -0.2 1 0.6
v -0.2 1 0.4
v -0.2 1.2 0.4
v -0.2 1.2 0.3
v -0.2 1.2 0.1
v -0.2 1.3 0.3
v -0.2 1.3 0.2
v -0.2 1.4 0.2
v -0.2 1.4 0.1
v -0.0999999 0.6 0.4
v -0.0999999 0.6 0.2
v -0.0999999 0.7 0.7
v -0.0999999 0.7 0.6
v -0.0999999 0.7 0.4
v -0.0999999 0.7 0.2
v -0.0999999 1 0.7
v -0.0999999 1 0.6
v 5.96046e-08 0.3 -0.5
v 5.96046e-08 0.3 -0.6
v 5.96046e-08 0.4 -0.4
v 5.96046e-08 0.4 -0.5
v 5.96046e-08 0.4 -0.6
v 5.96046e-08 0.5 -0.3
v 5.96046e-08 0.5 -0.4
v 5.96046e-08 0.5 -0.5
v 5.96046e-08 0.6 -0.3
v 5.96046e-08 0.6 -0.4
v 5.96046e-08 1 0.7
v 5.96046e-08 1 0.6
v 5.96046e-08 1.1 0.7
v 5.96046e-08 1.1 0.6
v 0.2 0 0.5
v 0.2 0 0.3
v 0.2 0 -0.1
v 0.2 0 -0.3
v 0.2 0.1 0.5
v 0.2 0.1 0.4
v 0.2 0.1 -0.1
v 0.2 0.1 -0.2
v 0.2 0.3 0.4
v 0.2 0.3 0.3
v 0.2 0.3 -0.2
v 0.2 0.3 -0.3
v 0.2 1.2 0.3
v 0.2 1.2 0.1
v 0.2 1.3 0.3
v 0.2 1.3 0.2
v 0.2 1.4 0.2
v 0.2 1.4 0.1
v -0.0999999 0 0.5
v -0.0999999 0 0.3
v -0.0999999 0 -0.1
v -0.0999999 0 -0.3
v -0.0999999 0.1 0.5
v -0.0999999 0.1 0.4
v -0.0999999 0.1 -0.1
v -0.0999999 0.1 -0.2
v -0.0999999 0.3 0.4
v -0.0999999 0.3 0.3
v -0.0999999 0.3 -0.2
v -0.0999999 0.3 -0.3
v -0.0999999 1.2 0.3
v -0.0999999 1.2 0.1
v -0.0999999 1.3 0.3
v -0.0999999 1.3 0.2
v -0.0999999 1.4 0.2
v -0.0999999 1.4 0.1
v 0.1 0.3 -0.5
v 0.1 0.3 -0.6
v 0.1 0.4 -0.4
v 0.1 0.4 -0.5
v 0.1 0.4 -0.6
v 0.1 0.5 -0.3
v 0.1 0.5 -0.4
v 0.1 0.5 -0.5
v 0.1 0.6 -0.3
v 0.1 0.6 -0.4
v 0.1 1 0.7
v 0.1 1 0.6
v 0.1 1.1 0.7
v 0.1 1.1 0.6
v 0.2 0.6 0.4
v 0.2 0.6 0.2
v 0.2 0.7 0.7
v 0.2 0.7 0.6
v 0.2 0.7 0.4
v 0.2 0.7 0.2
v 0.2 1 0.7
v 0.2 1 0.6
v 0.3 0 0.5
v 0.3 0 0.3
v 0.3 0 -0.1
v 0.3 0 -0.3
v 0.3 0.1 0.5
v 0.3 0.1 0.4
v 0.3 0.1 -0.1
v 0.3 0.1 -0.2
v 0.3 0.3 0.3
v 0.3 0.3 -0.2
v 0.3 0.6 0.4
v 0.3 0.6 -0.3
v 0.3 0.7 0.6
v 0.3 0.7 0.1
v 0.3 1 0.6
v 0.3 1 0.4
v 0.3 1.2 0.4
v 0.3 1.2 0.3
v 0.3 1.2 0.1
v 0.3 1.3 0.3
v 0.3 1.3 0.2
v 0.3 1.4 0.2
v 0.3 1.4 0.1
v -0.0999999 0.7 0.7
v -0.0999999 1 0.7
v 5.96046e-08 1 0.7
v 5.96046e-08 1.1 0.7
v 0.1 1 0.7
v 0.1 1.1 0.7
v 0.2 0.7 0.7
v 0.2 1 0.7
v -0.2 0.7 0.6
v -0.2 1 0.6
v -0.0999999 0.7 0.6
v -0.0999999 1 0.6
v 0.2 0.7 0.6
v 0.2 1 0.6
v 0.3 0.7 0.6
v 0.3 1 0.6
v -0.2 0 0.5
v -0.2 0.1 0.5
v -0.0999999 0 0.5
v -0.0999999 0.1 0.5
v 0.2 0 0.5
v 0.2 0.1 0.5
v 0.3 0 0.5
v 0.3 0.1 0.5
v -0.2 0.1 0.4
v -0.2 0.6 0.4
v -0.2 1 0.4
v -0.2 1.2 0.4
v -0.0999999 0.1 0.4
v -0.0999999 0.3 0.4
v -0.0999999 0.6 0.4
v -0.0999999 0.7 0.4
v -0.0999999 1 0.4
v -0.0999999 1.1 0.4
v 5.96046e-08 1 0.4
v 5.96046e-08 1.1 0.4
v 0.1 1 0.4
v 0.1 1.1 0.4
v 0.2 0.1 0.4
v 0.2 0.3 0.4
v 0.2 0.6 0.4
v 0.2 0.7 0.4
v 0.2 1 0.4
v 0.2 1.1 0.4
v 0.3 0.1 0.4
v 0.3 0.6 0.4
v 0.3 1 0.4
v 0.3 1.2 0.4
v -0.2 1.2 0.3
v -0.2 1.3 0.3
v -0.0999999 1.2 0.3
v -0.0999999 1.3 0.3
v 0.2 1.2 0.3
v 0.2 1.3 0.3
v 0.3 1.2 0.3
v 0.3 1.3 0.3
v -0.2 1.3 0.2
v -0.2 1.4 0.2
v -0.0999999 1.3 0.2
v -0.0999999 1.4 0.2
v 0.2 1.3 0.2
v 0.2 1.4 0.2
v 0.3 1.3 0.2
v 0.3 1.4 0.2
v -0.2 0 -0.1
v -0.2 0.1 -0.1
v -0.0999999 0 -0.1
v -0.0999999 0.1 -0.1
v 0.2 0 -0.1
v 0.2 0.1 -0.1
v 0.3 0 -0.1
v 0.3 0.1 -0.1
v -0.2 0.1 -0.2
v -0.2 0.3 -0.2
v -0.0999999 0.1 -0.2
v -0.0999999 0.3 -0.2
v 0.2 0.1 -0.2
v 0.2 0.3 -0.2
v 0.3 0.1 -0.2
v 0.3 0.3 -0.2
v 5.96046e-08 0.4 -0.4
v 5.96046e-08 0.5 -0.4
v 0.1 0.4 -0.4
v 0.1 0.5 -0.4
v 5.96046e-08 0.3 -0.5
v 5.96046e-08 0.4 -0.5
v 0.1 0.3 -0.5
v 0.1 0.4 -0.5
v 5.96046e-08 1 0.6
v 5.96046e-08 1.1 0.6
v 0.1 1 0.6
v 0.1 1.1 0.6
v -0.2 0 0.3
v -0.2 0.3 0.3
v -0.0999999 0 0.3
v -0.0999999 0.3 0.3
v 0.2 0 0.3
v 0.2 0.3 0.3
v 0.3 0 0.3
v 0.3 0.3 0.3
v -0.0999999 0.6 0.2
v -0.0999999 0.7 0.2
v 0.2 0.6 0.2
v 0.2 0.7 0.2
v -0.2 0.7 0.1
v -0.2 1.2 0.1
v -0.2 1.4 0.1
v -0.0999999 1.2 0.1
v -0.0999999 1.4 0.1
v 0.2 1.2 0.1
v 0.2 1.4 0.1
v 0.3 0.7 0.1
v 0.3 1.2 0.1
v 0.3 1.4 0.1
v -0.2 0 -0.3
v -0.2 0.6 -0.3
v -0.0999999 0 -0.3
v -0.0999999 0.3 -0.3
v 5.96046e-08 0.5 -0.3
v 5.96046e-08 0.6 -0.3
v 0.1 0.5 -0.3
v 0.1 0.6 -0.3
v 0.2 0 -0.3
v 0.2 0.3 -0.3
v 0.3 0 -0.3
v 0.3 0.6 -0.3
v 5.96046e-08 0.5 -0.4
v 5.96046e-08 0.6 -0.4
v 0.1 0.5 -0.4
v 0.1 0.6 -0.4
v 5.96046e-08 0.4 -0.5
v 5.96046e-08 0.5 -0.5
v 0.1 0.4 -0.5
v 0.1 0.5 -0.5
v 5.96046e-08 0.3 -0.6
v 5.96046e-08 0.4 -0.6
v 0.1 0.3 -0.6
v 0.1 0.4 -0.6
v -0.2 0 0.5
v -0.0999999 0 0.5
v 0.2 0 0.5
v 0.3 0 0.5
v -0.2 0 0.3
v -0.0999999 0 0.3
v 0.2 0 0.3
v 0.3 0 0.3
v -0.2 0 -0.1
v -0.0999999 0 -0.1
v 0.2 0 -0.1
v 0.3 0 -0.1
v -0.2 0 -0.3
v -0.0999999 0 -0.3
v 0.2 0 -0.3
v 0.3 0 -0.3
v -0.0999999 0.3 0.4
v 0.2 0.3 0.4
v -0.2 0.3 0.3
v -0.0999999 0.3 0.3
v 0.2 0.3 0.3
v 0.3 0.3 0.3
v -0.2 0.3 -0.2
v -0.0999999 0.3 -0.2
v 0.2 0.3 -0.2
v 0.3 0.3 -0.2
v -0.0999999 0.3 -0.3
v 0.2 0.3 -0.3
v 5.96046e-08 0.3 -0.5
v 0.1 0.3 -0.5
v 5.96046e-08 0.3 -0.6
v 0.1 0.3 -0.6
v 5.96046e-08 0.4 -0.4
v 0.1 0.4 -0.4
v 5.96046e-08 0.4 -0.5
v 0.1 0.4 -0.5
v 5.96046e-08 0.5 -0.3
v 0.1 0.5 -0.3
v 5.96046e-08 0.5 -0.4
v 0.1 0.5 -0.4
v -0.0999999 0.7 0.7
v 0.2 0.7 0.7
v -0.2 0.7 0.6
v -0.0999999 0.7 0.6
v 0.2 0.7 0.6
v 0.3 0.7 0.6
v -0.0999999 0.7 0.4
v 0.2 0.7 0.4
v -0.0999999 0.7 0.2
v 0.2 0.7 0.2
v -0.2 0.7 0.1
v 0.3 0.7 0.1
v -0.2 0.1 0.5
v -0.0999999 0.1 0.5
v 0.2 0.1 0.5
v 0.3 0.1 0.5
v -0.2 0.1 0.4
v -0.0999999 0.1 0.4
v 0.2 0.1 0.4
v 0.3 0.1 0.4
v -0.2 0.1 -0.1
v -0.0999999 0.1 -0.1
v 0.2 0.1 -0.1
v 0.3 0.1 -0.1
v -0.2 0.1 -0.2
v -0.0999999 0.1 -0.2
v 0.2 0.1 -0.2
v 0.3 0.1 -0.2
v 5.96046e-08 0.4 -0.5
v 0.1 0.4 -0.5
v 5.96046e-08 0.4 -0.6
v 0.1 0.4 -0.6
v 5.96046e-08 0.5 -0.4
v 0.1 0.5 -0.4
v 5.96046e-08 0.5 -0.5
v 0.1 0.5 -0.5
v -0.2 0.6 0.4
v -0.0999999 0.6 0.4
v 0.2 0.6 0.4
v 0.3 0.6 0.4
v -0.0999999 0.6 0.2
v 0.2 0.6 0.2
v -0.2 0.6 -0.3
v 5.96046e-08 0.6 -0.3
v 0.1 0.6 -0.3
v 0.3 0.6 -0.3
v 5.96046e-08 0.6 -0.4
v 0.1 0.6 -0.4
v -0.0999999 1 0.7
v 5.96046e-08 1 0.7
v 0.1 1 0.7
v 0.2 1 0.7
v -0.2 1 0.6
v -0.0999999 1 0.6
v 5.96046e-08 1 0.6
v 0.1 1 0.6
v 0.2 1 0.6
v 0.3 1 0.6
v -0.2 1 0.4
v -0.0999999 1 0.4
v 5.96046e-08 1 0.4
v 0.1 1 0.4
v 0.2 1 0.4
v 0.3 1 0.4
v 5.96046e-08 1.1 0.7
v 0.1 1.1 0.7
v 5.96046e-08 1.1 0.6
v 0.1 1.1 0.6
v -0.2 1.2 0.4
v 0.3 1.2 0.4
v -0.2 1.2 0.3
v -0.0999999 1.2 0.3
v 0.2 1.2 0.3
v 0.3 1.2 0.3
v -0.0999999 1.2 0.1
v 0.2 1.2 0.1
v -0.2 1.3 0.3
v -0.0999999 1.3 0.3
v 0.2 1.3 0.3
v 0.3 1.3 0.3
v -0.2 1.3 0.2
v -0.0999999 1.3 0.2
v 0.2 1.3 0.2
v 0.3 1.3 0.2
v -0.2 1.4 0.2
v -0.0999999 1.4 0.2
v 0.2 1.4 0.2
v 0.3 1.4 0.2
v -0.2 1.4 0.1
v -0.0999999 1.4 0.1
v 0.2 1.4 0.1
v 0.3 1.4 0.1

# faces
f 5/1/1 2/1/1 1/1/1
f 6/1/1 2/1/1 5/1/1
f 7/1/1 4/1/1 3/1/1
f 8/1/1 4/1/1 7/1/1
f 9/1/1 2/1/1 6/1/1
f 10/1/1 4/1/1 8/1/1
f 11/1/1 9/1/1 6/1/1
f 11/1/1 10/1/1 9/1/1
f 12/1/1 4/1/1 10/1/1
f 12/1/1 10/1/1 11/1/1
f 15/1/1 14/1/1 13/1/1
f 16/1/1 14/1/1 15/1/1
f 17/1/1 14/1/1 16/1/1
f 18/1/1 14/1/1 17/1/1
f 19/1/1 14/1/1 18/1/1
f 20/3/1 19/3/1 18/3/1
f 21/3/1 19/3/1 20/3/1
f 22/3/1 19/3/1 21/3/1
f 23/3/1 19/3/1 22/3/1
f 28/1/1 25/1/1 24/1/1
f 29/1/1 25/1/1 28/1/1
f 30/3/1 27/3/1 26/3/1
f 31/3/1 27/3/1 30/3/1
f 35/3/1 33/3/1 32/3/1
f 36/3/1 33/3/1 35/3/1
f 38/3/1 35/3/1 34/3/1
f 39/3/1 35/3/1 38/3/1
f 40/3/1 38/3/1 37/3/1
f 41/3/1 38/3/1 40/3/1
f 44/2/1 43/2/1 42/2/1
f 45/2/1 43/2/1 44/2/1
f 50/1/1 47/1/1 46/1/1
f 51/1/1 47/1/1 50/1/1
f 52/1/1 49/1/1 48/1/1
f 53/1/1 49/1/1 52/1/1
f 54/1/1 47/1/1 51/1/1
f 55/1/1 47/1/1 54/1/1
f 56/1/1 49/1/1 53/1/1
f 57/1/1 49/1/1 56/1/1
f 60/3/1 59/3/1 58/3/1
f 61/3/1 59/3/1 60/3/1
f 62/3/1 59/3/1 61/3/1
f 63/3/1 59/3/1 62/3/1
f 64/1/2 65/1/2 68/1/2
f 68/1/2 65/1/2 69/1/2
f 66/1/2 67/1/2 70/1/2
f 70/1/2 67/1/2 71/1/2
f 69/1/2 65/1/2 72/1/2
f 72/1/2 65/1/2 73/1/2
f 71/1/2 67/1/2 74/1/2
f 74/1/2 67/1/2 75/1/2
f 76/3/2 77/3/2 78/3/2
f 78/3/2 77/3/2 79/3/2
f 79/3/2 77/3/2 80/3/2
f 80/3/2 77/3/2 81/3/2
f 82/3/2 83/3/2 85/3/2
f 85/3/2 83/3/2 86/3/2
f 84/3/2 85/3/2 88/3/2
f 88/3/2 85/3/2 89/3/2
f 87/3/2 88/3/2 90/3/2
f 90/3/2 88/3/2 91/3/2
f 92/2/2 93/2/2 94/2/2
f 94/2/2 93/2/2 95/2/2
f 96/1/2 97/1/2 100/1/2
f 100/1/2 97/1/2 101/1/2
f 98/3/2 99/3/2 102/3/2
f 102/3/2 99/3/2 103/3/2
f 104/1/2 105/1/2 108/1/2
f 108/1/2 105/1/2 109/1/2
f 106/1/2 107/1/2 110/1/2
f 110/1/2 107/1/2 111/1/2
f 109/1/2 105/1/2 112/1/2
f 111/1/2 107/1/2 113/1/2
f 109/1/2 112/1/2 114/1/2
f 112/1/2 113/1/2 114/1/2
f 113/1/2 107/1/2 115/1/2
f 114/1/2 113/1/2 115/1/2
f 116/1/2 117/1/2 118/1/2
f 118/1/2 117/1/2 119/1/2
f 119/1/2 117/1/2 120/1/2
f 120/1/2 117/1/2 121/1/2
f 121/1/2 117/1/2 122/1/2
f 121/3/2 122/3/2 123/3/2
f 123/3/2 122/3/2 124/3/2
f 124/3/2 122/3/2 125/3/2
f 125/3/2 122/3/2 126/3/2
f 129/3/3 128/3/3 127/3/3
f 131/3/3 129/3/3 127/3/3
f 131/2/3 130/2/3 129/2/3
f 132/2/3 130/2/3 131/2/3
f 133/3/3 131/3/3 127/3/3
f 134/3/3 131/3/3 133/3/3
f 137/1/3 136/1/3 135/1/3
f 138/1/3 136/1/3 137/1/3
f 141/1/3 140/1/3 139/1/3
f 142/1/3 140/1/3 141/1/3
f 145/1/3 144/1/3 143/1/3
f 146/1/3 144/1/3 145/1/3
f 149/1/3 148/1/3 147/1/3
f 150/1/3 148/1/3 149/1/3
f 155/1/3 152/1/3 151/1/3
f 156/1/3 152/1/3 155/1/3
f 157/1/3 152/1/3 156/1/3
f 159/1/3 154/1/3 153/1/3
f 160/1/3 154/1/3 159/1/3
f 161/4/3 160/4/3 159/4/3
f 162/1/3 154/1/3 160/1/3
f 162/4/3 160/4/3 161/4/3
f 163/1/3 162/1/3 161/1/3
f 164/1/3 154/1/3 162/1/3
f 164/1/3 162/1/3 163/1/3
f 166/1/3 158/1/3 157/1/3
f 166/1/3 157/1/3 156/1/3
f 167/1/3 158/1/3 166/1/3
f 168/1/3 158/1/3 167/1/3
f 169/4/3 164/4/3 163/4/3
f 170/1/3 154/1/3 164/1/3
f 170/4/3 164/4/3 169/4/3
f 171/1/3 166/1/3 165/1/3
f 171/1/3 167/1/3 166/1/3
f 172/1/3 167/1/3 171/1/3
f 173/1/3 170/1/3 169/1/3
f 174/1/3 154/1/3 170/1/3
f 174/1/3 170/1/3 173/1/3
f 177/3/3 176/3/3 175/3/3
f 178/3/3 176/3/3 177/3/3
f 181/3/3 180/3/3 179/3/3
f 182/3/3 180/3/3 181/3/3
f 185/3/3 184/3/3 183/3/3
f 186/3/3 184/3/3 185/3/3
f 189/3/3 188/3/3 187/3/3
f 190/3/3 188/3/3 189/3/3
f 193/1/3 192/1/3 191/1/3
f 194/1/3 192/1/3 193/1/3
f 197/1/3 196/1/3 195/1/3
f 198/1/3 196/1/3 197/1/3
f 201/1/3 200/1/3 199/1/3
f 202/1/3 200/1/3 201/1/3
f 205/1/3 204/1/3 203/1/3
f 206/1/3 204/1/3 205/1/3
f 209/3/3 208/3/3 207/3/3
f 210/3/3 208/3/3 209/3/3
f 213/3/3 212/3/3 211/3/3
f 214/3/3 212/3/3 213/3/3
f 215/2/4 216/2/4 217/2/4
f 217/2/4 216/2/4 218/2/4
f 219/1/4 220/1/4 221/1/4
f 221/1/4 220/1/4 222/1/4
f 223/1/4 224/1/4 225/1/4
f 225/1/4 224/1/4 226/1/4
f 227/1/4 228/1/4 229/1/4
f 229/1/4 228/1/4 230/1/4
f 231/1/4 232/1/4 234/1/4
f 232/3/4 233/3/4 234/3/4
f 234/3/4 233/3/4 235/3/4
f 231/1/4 234/1/4 236/1/4
f 231/1/4 236/1/4 238/1/4
f 236/3/4 237/3/4 239/3/4
f 238/1/4 236/1/4 239/1/4
f 239/3/4 237/3/4 240/3/4
f 241/1/4 242/1/4 243/1/4
f 243/1/4 242/1/4 244/1/4
f 244/1/4 242/1/4 245/1/4
f 245/1/4 242/1/4 246/1/4
f 244/1/4 245/1/4 247/1/4
f 244/1/4 247/1/4 250/1/4
f 247/1/4 248/1/4 250/1/4
f 249/1/4 250/1/4 251/1/4
f 250/1/4 248/1/4 252/1/4
f 251/1/4 250/1/4 252/1/4
f 253/3/4 254/3/4 255/3/4
f 255/3/4 254/3/4 256/3/4
f 257/3/4 258/3/4 259/3/4
f 259/3/4 258/3/4 260/3/4
f 261/3/4 262/3/4 263/3/4
f 263/3/4 262/3/4 264/3/4
f 269/1/5 266/1/5 265/1/5
f 270/1/5 266/1/5 269/1/5
f 271/1/5 268/1/5 267/1/5
f 272/1/5 268/1/5 271/1/5
f 277/1/5 274/1/5 273/1/5
f 278/1/5 274/1/5 277/1/5
f 279/1/5 276/1/5 275/1/5
f 280/1/5 276/1/5 279/1/5
f 284/1/5 282/1/5 281/1/5
f 285/1/5 282/1/5 284/1/5
f 287/1/5 284/1/5 283/1/5
f 287/1/5 286/1/5 285/1/5
f 287/1/5 285/1/5 284/1/5
f 288/1/5 286/1/5 287/1/5
f 289/1/5 286/1/5 288/1/5
f 290/1/5 286/1/5 289/1/5
f 291/1/5 289/1/5 288/1/5
f 292/1/5 289/1/5 291/1/5
f 295/3/5 294/3/5 293/3/5
f 296/3/5 294/3/5 295/3/5
f 299/3/5 298/3/5 297/3/5
f 300/3/5 298/3/5 299/3/5
f 303/3/5 302/3/5 301/3/5
f 304/3/5 302/3/5 303/3/5
f 308/3/5 306/3/5 305/3/5
f 309/3/5 306/3/5 308/3/5
f 311/1/5 308/1/5 307/1/5
f 311/1/5 310/1/5 309/1/5
f 311/1/5 309/1/5 308/1/5
f 312/1/5 310/1/5 311/1/5
f 313/1/5 311/1/5 307/1/5
f 314/1/5 310/1/5 312/1/5
f 315/1/5 313/1/5 307/1/5
f 315/1/5 314/1/5 313/1/5
f 316/1/5 310/1/5 314/1/5
f 316/1/5 314/1/5 315/1/5
f 317/1/6 318/1/6 321/1/6
f 321/1/6 318/1/6 322/1/6
f 319/1/6 320/1/6 323/1/6
f 323/1/6 320/1/6 324/1/6
f 325/1/6 326/1/6 329/1/6
f 329/1/6 326/1/6 330/1/6
f 327/1/6 328/1/6 331/1/6
f 331/1/6 328/1/6 332/1/6
f 333/3/6 334/3/6 335/3/6
f 335/3/6 334/3/6 336/3/6
f 337/3/6 338/3/6 339/3/6
f 339/3/6 338/3/6 340/3/6
f 341/1/6 342/1/6 345/1/6
f 343/1/6 344/1/6 346/1/6
f 341/1/6 345/1/6 347/1/6
f 345/1/6 346/1/6 347/1/6
f 347/1/6 346/1/6 348/1/6
f 348/1/6 346/1/6 349/1/6
f 346/1/6 344/1/6 350/1/6
f 349/1/6 346/1/6 350/1/6
f 348/3/6 349/3/6 351/3/6
f 351/3/6 349/3/6 352/3/6
f 353/3/6 354/3/6 358/3/6
f 358/3/6 354/3/6 359/3/6
f 355/3/6 356/3/6 360/3/6
f 360/3/6 356/3/6 361/3/6
f 358/1/6 359/1/6 363/1/6
f 361/1/6 362/1/6 363/1/6
f 360/1/6 361/1/6 363/1/6
f 359/1/6 360/1/6 363/1/6
f 357/1/6 358/1/6 363/1/6
f 363/1/6 362/1/6 364/1/6
f 364/1/6 362/1/6 365/1/6
f 365/1/6 362/1/6 366/1/6
f 366/1/6 362/1/6 367/1/6
f 367/1/6 362/1/6 368/1/6
f 369/2/6 370/2/6 371/2/6
f 371/2/6 370/2/6 372/2/6
f 373/1/6 374/1/6 375/1/6
f 375/1/6 374/1/6 376/1/6
f 376/1/6 374/1/6 377/1/6
f 377/1/6 374/1/6 378/1/6
f 376/1/6 377/1/6 379/1/6
f 379/1/6 377/1/6 380/1/6
f 381/3/6 382/3/6 385/3/6
f 385/3/6 382/3/6 386/3/6
f 383/3/6 384/3/6 387/3/6
f 387/3/6 384/3/6 388/3/6
f 389/3/6 390/3/6 393/3/6
f 393/3/6 390/3/6 394/3/6
f 391/3/6 392/3/6 395/3/6
f 395/3/6 392/3/6 396/3/6
