# MagicaVoxel @ Ephtracy

# group
o 

# material
mtllib momo_boat.mtl
usemtl palette

# normals
vn -1 0 0
vn 1 0 0
vn 0 0 1
vn 0 0 -1
vn 0 -1 0
vn 0 1 0

# texcoords
vt 0.0332031 0.5
vt 0.0488281 0.5
vt 0.119141 0.5
vt 0.123047 0.5
vt 0.228516 0.5
vt 0.279297 0.5
vt 0.654297 0.5
vt 0.962891 0.5
vt 0.978516 0.5
vt 0.990234 0.5
vt 0.994141 0.5

# verts
v -1.2 0.6 0.9
v -1.2 0.6 -1.2
v -1.2 0.9 0.9
v -1.2 0.9 -1.2
v -1 0.4 0.9
v -1 0.4 -1.2
v -1 0.6 1.1
v -1 0.6 0.9
v -1 0.6 -1.2
v -1 0.9 1.1
v -1 0.9 0.9
v -0.8 0.2 0.7
v -0.8 0.2 -1.2
v -0.8 0.4 0.7
v -0.8 0.4 -1.2
v -0.8 1.2 -0.5
v -0.8 1.2 -0.9
v -0.8 1.4 -0.3
v -0.8 1.4 -0.5
v -0.8 1.6 -0.1
v -0.8 1.6 -0.3
v -0.8 1.7 0.4
v -0.8 1.7 -0.1
v -0.8 2.1 0.4
v -0.8 2.1 -0.9
v -0.7 0.4 1.1
v -0.7 0.4 0.9
v -0.7 0.6 1.1
v -0.7 0.6 0.9
v -0.6 0.4 -0.1
v -0.6 0.4 -0.3
v -0.6 0.6 -0.1
v -0.6 0.6 -0.3
v -0.6 0.7 1.3
v -0.6 0.7 1.1
v -0.6 0.9 1.3
v -0.6 0.9 1.1
v -0.6 1 0.3
v -0.6 1 -0.1
v -0.6 1 -0.3
v -0.6 1 -0.7
v -0.6 1.2 -0.5
v -0.6 1.2 -0.7
v -0.6 1.4 -0.3
v -0.6 1.4 -0.5
v -0.6 1.6 -0.1
v -0.6 1.6 -0.3
v -0.6 1.7 0.3
v -0.6 1.7 -0.1
v -0.6 2.1 0.3
v -0.6 2.1 -0.7
v -0.6 2.2 0.3
v -0.6 2.2 -0.7
v -0.4 0.4 0.1
v -0.4 0.4 -0.1
v -0.4 0.4 -0.3
v -0.4 0.4 -0.5
v -0.4 0.5 0.1
v -0.4 0.5 -0.1
v -0.4 0.5 -0.3
v -0.4 0.5 -0.5
v -0.4 0.6 0.1
v -0.4 0.6 -0.1
v -0.4 0.6 -0.3
v -0.4 0.6 -0.5
v -0.4 1 0.1
v -0.4 1 -0.1
v -0.4 1 -0.3
v -0.4 1 -0.5
v -0.3 0.5 1.3
v -0.3 0.5 1.1
v -0.3 0.7 1.5
v -0.3 0.7 1.3
v -0.3 0.7 1.1
v -0.3 0.9 1.5
v -0.3 0.9 1.3
v -0.3 2.3 0
v -0.3 2.3 -0.5
v -0.3 2.5 0
v -0.3 2.5 -0.5
v -0.2 2.2 -0.1
v -0.2 2.2 -0.4
v -0.2 2.3 -0.1
v -0.2 2.3 -0.4
v 0.0999999 0.7 1.3
v 0.0999999 0.7 1.1
v 0.0999999 0.9 1.3
v 0.0999999 0.9 1.1
v 0.2 2 0.4
v 0.2 2 0.3
v 0.2 2.1 0.4
v 0.2 2.1 0.3
v 0.3 1.7 0.4
v 0.3 1.7 0.3
v 0.3 1.8 0.3
v 0.3 2 0.4
v 0.3 2 0.3
v 0.4 0.7 1.1
v 0.4 0.7 0.9
v 0.4 0.9 1.1
v 0.4 0.9 0.9
v 0.8 0.4 0.7
v 0.8 0.4 -1
v 0.8 0.6 0.9
v 0.8 0.6 0.7
v 0.8 0.6 -1
v 0.8 0.9 0.9
v 0.8 0.9 0.7
v 1 0.6 0.7
v 1 0.6 -1
v 1 0.9 0.7
v 1 0.9 -1
v -1 0.6 0.7
v -1 0.6 -1
v -1 0.9 0.7
v -1 0.9 -1
v -0.8 0.4 0.7
v -0.8 0.4 -1
v -0.8 0.6 0.9
v -0.8 0.6 0.7
v -0.8 0.6 -1
v -0.8 0.9 0.9
v -0.8 0.9 0.7
v -0.4 0.7 1.1
v -0.4 0.7 0.9
v -0.4 0.9 1.1
v -0.4 0.9 0.9
v -0.3 1.7 0.4
v -0.3 1.7 0.3
v -0.3 1.8 0.3
v -0.3 2 0.4
v -0.3 2 0.3
v -0.2 2 0.4
v -0.2 2 0.3
v -0.2 2.1 0.4
v -0.2 2.1 0.3
v -0.1 0.7 1.3
v -0.1 0.7 1.1
v -0.1 0.9 1.3
v -0.1 0.9 1.1
v 0.2 2.2 -0.1
v 0.2 2.2 -0.4
v 0.2 2.3 -0.1
v 0.2 2.3 -0.4
v 0.3 0.5 1.3
v 0.3 0.5 1.1
v 0.3 0.7 1.5
v 0.3 0.7 1.3
v 0.3 0.7 1.1
v 0.3 0.9 1.5
v 0.3 0.9 1.3
v 0.3 2.3 0
v 0.3 2.3 -0.5
v 0.3 2.5 0
v 0.3 2.5 -0.5
v 0.4 0.4 0.1
v 0.4 0.4 -0.1
v 0.4 0.4 -0.3
v 0.4 0.4 -0.5
v 0.4 0.5 0.1
v 0.4 0.5 -0.1
v 0.4 0.5 -0.3
v 0.4 0.5 -0.5
v 0.4 0.6 0.1
v 0.4 0.6 -0.1
v 0.4 0.6 -0.3
v 0.4 0.6 -0.5
v 0.4 1 0.1
v 0.4 1 -0.1
v 0.4 1 -0.3
v 0.4 1 -0.5
v 0.6 0.4 -0.1
v 0.6 0.4 -0.3
v 0.6 0.6 -0.1
v 0.6 0.6 -0.3
v 0.6 0.7 1.3
v 0.6 0.7 1.1
v 0.6 0.9 1.3
v 0.6 0.9 1.1
v 0.6 1 0.3
v 0.6 1 -0.1
v 0.6 1 -0.3
v 0.6 1 -0.7
v 0.6 1.2 -0.5
v 0.6 1.2 -0.7
v 0.6 1.4 -0.3
v 0.6 1.4 -0.5
v 0.6 1.6 -0.1
v 0.6 1.6 -0.3
v 0.6 1.7 0.3
v 0.6 1.7 -0.1
v 0.6 2.1 0.3
v 0.6 2.1 -0.7
v 0.6 2.2 0.3
v 0.6 2.2 -0.7
v 0.7 0.4 1.1
v 0.7 0.4 0.9
v 0.7 0.6 1.1
v 0.7 0.6 0.9
v 0.8 0.2 0.7
v 0.8 0.2 -1.2
v 0.8 0.4 0.7
v 0.8 0.4 -1.2
v 0.8 1.2 -0.5
v 0.8 1.2 -0.9
v 0.8 1.4 -0.3
v 0.8 1.4 -0.5
v 0.8 1.6 -0.1
v 0.8 1.6 -0.3
v 0.8 1.7 0.4
v 0.8 1.7 -0.1
v 0.8 2.1 0.4
v 0.8 2.1 -0.9
v 1 0.4 0.9
v 1 0.4 -1.2
v 1 0.6 1.1
v 1 0.6 0.9
v 1 0.6 -1.2
v 1 0.9 1.1
v 1 0.9 0.9
v 1.2 0.6 0.9
v 1.2 0.6 -1.2
v 1.2 0.9 0.9
v 1.2 0.9 -1.2
v -0.3 0.7 1.5
v -0.3 0.9 1.5
v 0.3 0.7 1.5
v 0.3 0.9 1.5
v -0.6 0.7 1.3
v -0.6 0.9 1.3
v -0.3 0.5 1.3
v -0.3 0.7 1.3
v -0.3 0.9 1.3
v 0.3 0.5 1.3
v 0.3 0.7 1.3
v 0.3 0.9 1.3
v 0.6 0.7 1.3
v 0.6 0.9 1.3
v -1 0.6 1.1
v -1 0.9 1.1
v -0.7 0.4 1.1
v -0.7 0.6 1.1
v -0.6 0.7 1.1
v -0.6 0.9 1.1
v -0.3 0.5 1.1
v -0.3 0.7 1.1
v 0.3 0.5 1.1
v 0.3 0.7 1.1
v 0.6 0.7 1.1
v 0.6 0.9 1.1
v 0.7 0.4 1.1
v 0.7 0.6 1.1
v 1 0.6 1.1
v 1 0.9 1.1
v -1.2 0.6 0.9
v -1.2 0.9 0.9
v -1 0.4 0.9
v -1 0.6 0.9
v -1 0.9 0.9
v -0.7 0.4 0.9
v -0.7 0.6 0.9
v 0.7 0.4 0.9
v 0.7 0.6 0.9
v 1 0.4 0.9
v 1 0.6 0.9
v 1 0.9 0.9
v 1.2 0.6 0.9
v 1.2 0.9 0.9
v -0.8 0.2 0.7
v -0.8 0.4 0.7
v 0.8 0.2 0.7
v 0.8 0.4 0.7
v -0.8 1.7 0.4
v -0.8 2.1 0.4
v -0.3 1.7 0.4
v -0.3 2 0.4
v -0.2 2 0.4
v -0.2 2.1 0.4
v 0.2 2 0.4
v 0.2 2.1 0.4
v 0.3 1.7 0.4
v 0.3 2 0.4
v 0.8 1.7 0.4
v 0.8 2.1 0.4
v -0.6 1 0.3
v -0.6 1.7 0.3
v -0.6 2.1 0.3
v -0.6 2.2 0.3
v -0.4 1.2 0.3
v -0.4 1.6 0.3
v -0.3 1.7 0.3
v -0.3 1.8 0.3
v -0.3 2 0.3
v -0.2 1.2 0.3
v -0.2 1.6 0.3
v -0.2 1.8 0.3
v -0.2 2 0.3
v -0.2 2.1 0.3
v 0.2 1.2 0.3
v 0.2 1.6 0.3
v 0.2 1.8 0.3
v 0.2 2 0.3
v 0.2 2.1 0.3
v 0.3 1.7 0.3
v 0.3 1.8 0.3
v 0.3 2 0.3
v 0.4 1.2 0.3
v 0.4 1.6 0.3
v 0.6 1 0.3
v 0.6 1.7 0.3
v 0.6 2.1 0.3
v 0.6 2.2 0.3
v -0.4 0.4 0.1
v -0.4 0.5 0.1
v -0.4 0.6 0.1
v -0.4 1 0.1
v -0.3 0.5 0.1
v -0.3 0.6 0.1
v -0.2 0.6 0.1
v -0.2 0.7 0.1
v -0.2 0.8 0.1
v -0.2 1 0.1
v -0.1 0.5 0.1
v -0.1 0.6 0.1
v -0.1 0.7 0.1
v -0.1 0.8 0.1
v -0.1 0.9 0.1
v -0.1 1 0.1
v 0 0.6 0.1
v 0 0.7 0.1
v 0.0999999 0.7 0.1
v 0.0999999 0.8 0.1
v 0.0999999 0.9 0.1
v 0.0999999 1 0.1
v 0.2 0.6 0.1
v 0.2 0.8 0.1
v 0.2 1 0.1
v 0.4 0.4 0.1
v 0.4 0.5 0.1
v 0.4 0.6 0.1
v 0.4 1 0.1
v -0.3 2.3 0
v -0.3 2.5 0
v 0.3 2.3 0
v 0.3 2.5 0
v -0.8 1.6 -0.1
v -0.8 1.7 -0.1
v -0.6 0.4 -0.1
v -0.6 0.6 -0.1
v -0.6 1 -0.1
v -0.6 1.6 -0.1
v -0.6 1.7 -0.1
v -0.4 0.4 -0.1
v -0.4 0.5 -0.1
v -0.4 0.6 -0.1
v -0.4 1 -0.1
v -0.2 2.2 -0.1
v -0.2 2.3 -0.1
v 0.2 2.2 -0.1
v 0.2 2.3 -0.1
v 0.4 0.4 -0.1
v 0.4 0.5 -0.1
v 0.4 0.6 -0.1
v 0.4 1 -0.1
v 0.6 0.4 -0.1
v 0.6 0.6 -0.1
v 0.6 1 -0.1
v 0.6 1.6 -0.1
v 0.6 1.7 -0.1
v 0.8 1.6 -0.1
v 0.8 1.7 -0.1
v -0.8 1.4 -0.3
v -0.8 1.6 -0.3
v -0.6 1.4 -0.3
v -0.6 1.6 -0.3
v 0.6 1.4 -0.3
v 0.6 1.6 -0.3
v 0.8 1.4 -0.3
v 0.8 1.6 -0.3
v -0.8 1.2 -0.5
v -0.8 1.4 -0.5
v -0.6 1.2 -0.5
v -0.6 1.4 -0.5
v 0.6 1.2 -0.5
v 0.6 1.4 -0.5
v 0.8 1.2 -0.5
v 0.8 1.4 -0.5
v -1 0.6 -1
v -1 0.9 -1
v -0.8 0.4 -1
v -0.8 0.6 -1
v 0.8 0.4 -1
v 0.8 0.6 -1
v 1 0.6 -1
v 1 0.9 -1
v -0.1 0.7 1.3
v -0.1 0.9 1.3
v 0.0999999 0.7 1.3
v 0.0999999 0.9 1.3
v -0.4 0.7 1.1
v -0.4 0.9 1.1
v -0.1 0.7 1.1
v -0.1 0.9 1.1
v 0.0999999 0.7 1.1
v 0.0999999 0.9 1.1
v 0.4 0.7 1.1
v 0.4 0.9 1.1
v -0.8 0.6 0.9
v -0.8 0.9 0.9
v -0.4 0.7 0.9
v -0.4 0.9 0.9
v 0.4 0.7 0.9
v 0.4 0.9 0.9
v 0.8 0.6 0.9
v 0.8 0.9 0.9
v -1 0.6 0.7
v -1 0.9 0.7
v -0.8 0.4 0.7
v -0.8 0.6 0.7
v -0.8 0.9 0.7
v 0.8 0.4 0.7
v 0.8 0.6 0.7
v 0.8 0.9 0.7
v 1 0.6 0.7
v 1 0.9 0.7
v -0.6 0.4 -0.3
v -0.6 0.6 -0.3
v -0.6 1 -0.3
v -0.4 0.4 -0.3
v -0.4 0.5 -0.3
v -0.4 0.6 -0.3
v -0.4 1 -0.3
v 0.4 0.4 -0.3
v 0.4 0.5 -0.3
v 0.4 0.6 -0.3
v 0.4 1 -0.3
v 0.6 0.4 -0.3
v 0.6 0.6 -0.3
v 0.6 1 -0.3
v -0.2 2.2 -0.4
v -0.2 2.3 -0.4
v 0.2 2.2 -0.4
v 0.2 2.3 -0.4
v -0.4 0.4 -0.5
v -0.4 0.5 -0.5
v -0.4 0.6 -0.5
v -0.4 1 -0.5
v -0.3 2.3 -0.5
v -0.3 2.5 -0.5
v 0.3 2.3 -0.5
v 0.3 2.5 -0.5
v 0.4 0.4 -0.5
v 0.4 0.5 -0.5
v 0.4 0.6 -0.5
v 0.4 1 -0.5
v -0.6 1 -0.7
v -0.6 1.2 -0.7
v -0.6 2.1 -0.7
v -0.6 2.2 -0.7
v 0.6 1 -0.7
v 0.6 1.2 -0.7
v 0.6 2.1 -0.7
v 0.6 2.2 -0.7
v -0.8 1.2 -0.9
v -0.8 2.1 -0.9
v 0.8 1.2 -0.9
v 0.8 2.1 -0.9
v -1.2 0.6 -1.2
v -1.2 0.9 -1.2
v -1 0.4 -1.2
v -1 0.6 -1.2
v -0.8 0.2 -1.2
v -0.8 0.4 -1.2
v 0.8 0.2 -1.2
v 0.8 0.4 -1.2
v 1 0.4 -1.2
v 1 0.6 -1.2
v 1.2 0.6 -1.2
v 1.2 0.9 -1.2
v -0.8 0.2 0.7
v 0.8 0.2 0.7
v -0.8 0.2 -1.2
v 0.8 0.2 -1.2
v -0.7 0.4 1.1
v 0.7 0.4 1.1
v -1 0.4 0.9
v -0.7 0.4 0.9
v 0.7 0.4 0.9
v 1 0.4 0.9
v -0.8 0.4 0.7
v 0.8 0.4 0.7
v -1 0.4 -1.2
v -0.8 0.4 -1.2
v 0.8 0.4 -1.2
v 1 0.4 -1.2
v -0.3 0.5 1.3
v 0.3 0.5 1.3
v -0.3 0.5 1.1
v 0.3 0.5 1.1
v -1 0.6 1.1
v -0.7 0.6 1.1
v 0.7 0.6 1.1
v 1 0.6 1.1
v -1.2 0.6 0.9
v -1 0.6 0.9
v -0.7 0.6 0.9
v 0.7 0.6 0.9
v 1 0.6 0.9
v 1.2 0.6 0.9
v -1.2 0.6 -1.2
v -1 0.6 -1.2
v 1 0.6 -1.2
v 1.2 0.6 -1.2
v -0.3 0.7 1.5
v 0.3 0.7 1.5
v -0.6 0.7 1.3
v -0.3 0.7 1.3
v 0.3 0.7 1.3
v 0.6 0.7 1.3
v -0.6 0.7 1.1
v -0.3 0.7 1.1
v 0.3 0.7 1.1
v 0.6 0.7 1.1
v -0.6 1 0.3
v 0.6 1 0.3
v -0.4 1 0.1
v -0.2 1 0.1
v -0.1 1 0.1
v 0.0999999 1 0.1
v 0.2 1 0.1
v 0.4 1 0.1
v -0.6 1 -0.1
v -0.4 1 -0.1
v 0.4 1 -0.1
v 0.6 1 -0.1
v -0.6 1 -0.3
v -0.4 1 -0.3
v 0.4 1 -0.3
v 0.6 1 -0.3
v -0.4 1 -0.5
v 0.4 1 -0.5
v -0.6 1 -0.7
v 0.6 1 -0.7
v -0.8 1.2 -0.5
v -0.6 1.2 -0.5
v 0.6 1.2 -0.5
v 0.8 1.2 -0.5
v -0.6 1.2 -0.7
v 0.6 1.2 -0.7
v -0.8 1.2 -0.9
v 0.8 1.2 -0.9
v -0.8 1.4 -0.3
v -0.6 1.4 -0.3
v 0.6 1.4 -0.3
v 0.8 1.4 -0.3
v -0.8 1.4 -0.5
v -0.6 1.4 -0.5
v 0.6 1.4 -0.5
v 0.8 1.4 -0.5
v -0.8 1.6 -0.1
v -0.6 1.6 -0.1
v 0.6 1.6 -0.1
v 0.8 1.6 -0.1
v -0.8 1.6 -0.3
v -0.6 1.6 -0.3
v 0.6 1.6 -0.3
v 0.8 1.6 -0.3
v -0.8 1.7 0.4
v -0.3 1.7 0.4
v 0.3 1.7 0.4
v 0.8 1.7 0.4
v -0.6 1.7 0.3
v -0.3 1.7 0.3
v 0.3 1.7 0.3
v 0.6 1.7 0.3
v -0.8 1.7 -0.1
v -0.6 1.7 -0.1
v 0.6 1.7 -0.1
v 0.8 1.7 -0.1
v -0.3 2 0.4
v -0.2 2 0.4
v 0.2 2 0.4
v 0.3 2 0.4
v -0.3 2 0.3
v -0.2 2 0.3
v 0.2 2 0.3
v 0.3 2 0.3
v -0.3 2.3 0
v 0.3 2.3 0
v -0.2 2.3 -0.1
v 0.2 2.3 -0.1
v -0.2 2.3 -0.4
v 0.2 2.3 -0.4
v -0.3 2.3 -0.5
v 0.3 2.3 -0.5
v -0.8 0.4 0.7
v 0.8 0.4 0.7
v -0.4 0.4 0.1
v 0.4 0.4 0.1
v -0.6 0.4 -0.1
v -0.4 0.4 -0.1
v 0.4 0.4 -0.1
v 0.6 0.4 -0.1
v -0.6 0.4 -0.3
v -0.4 0.4 -0.3
v 0.4 0.4 -0.3
v 0.6 0.4 -0.3
v -0.4 0.4 -0.5
v 0.4 0.4 -0.5
v -0.8 0.4 -1
v 0.8 0.4 -1
v -0.8 0.6 0.9
v 0.8 0.6 0.9
v -1 0.6 0.7
v -0.8 0.6 0.7
v 0.8 0.6 0.7
v 1 0.6 0.7
v -1 0.6 -1
v -0.8 0.6 -1
v 0.8 0.6 -1
v 1 0.6 -1
v -0.1 0.7 1.3
v 0.0999999 0.7 1.3
v -0.4 0.7 1.1
v -0.1 0.7 1.1
v 0.0999999 0.7 1.1
v 0.4 0.7 1.1
v -0.4 0.7 0.9
v 0.4 0.7 0.9
v -0.3 0.9 1.5
v 0.3 0.9 1.5
v -0.6 0.9 1.3
v -0.3 0.9 1.3
v -0.1 0.9 1.3
v 0.0999999 0.9 1.3
v 0.3 0.9 1.3
v 0.6 0.9 1.3
v -1 0.9 1.1
v -0.6 0.9 1.1
v -0.4 0.9 1.1
v -0.1 0.9 1.1
v 0.0999999 0.9 1.1
v 0.4 0.9 1.1
v 0.6 0.9 1.1
v 1 0.9 1.1
v -1.2 0.9 0.9
v -1 0.9 0.9
v -0.8 0.9 0.9
v -0.4 0.9 0.9
v 0.4 0.9 0.9
v 0.8 0.9 0.9
v 1 0.9 0.9
v 1.2 0.9 0.9
v -1 0.9 0.7
v -0.8 0.9 0.7
v 0.8 0.9 0.7
v 1 0.9 0.7
v -1 0.9 -1
v 1 0.9 -1
v -1.2 0.9 -1.2
v 1.2 0.9 -1.2
v -0.8 2.1 0.4
v -0.2 2.1 0.4
v 0.2 2.1 0.4
v 0.8 2.1 0.4
v -0.6 2.1 0.3
v -0.2 2.1 0.3
v 0.2 2.1 0.3
v 0.6 2.1 0.3
v -0.6 2.1 -0.7
v 0.6 2.1 -0.7
v -0.8 2.1 -0.9
v 0.8 2.1 -0.9
v -0.6 2.2 0.3
v 0.6 2.2 0.3
v -0.2 2.2 -0.1
v 0.2 2.2 -0.1
v -0.2 2.2 -0.4
v 0.2 2.2 -0.4
v -0.6 2.2 -0.7
v 0.6 2.2 -0.7
v -0.3 2.5 0
v 0.3 2.5 0
v -0.3 2.5 -0.5
v 0.3 2.5 -0.5

# faces
f 3/5/1 2/5/1 1/5/1
f 4/5/1 2/5/1 3/5/1
f 8/5/1 6/5/1 5/5/1
f 9/5/1 6/5/1 8/5/1
f 10/5/1 8/5/1 7/5/1
f 11/5/1 8/5/1 10/5/1
f 14/5/1 13/5/1 12/5/1
f 15/5/1 13/5/1 14/5/1
f 19/10/1 17/10/1 16/10/1
f 21/10/1 19/10/1 18/10/1
f 23/10/1 21/10/1 20/10/1
f 24/10/1 23/10/1 22/10/1
f 25/10/1 17/10/1 19/10/1
f 25/10/1 23/10/1 24/10/1
f 25/10/1 19/10/1 21/10/1
f 25/10/1 21/10/1 23/10/1
f 28/5/1 27/5/1 26/5/1
f 29/5/1 27/5/1 28/5/1
f 32/1/1 31/1/1 30/1/1
f 33/1/1 31/1/1 32/1/1
f 36/5/1 35/5/1 34/5/1
f 37/5/1 35/5/1 36/5/1
f 39/3/1 33/3/1 32/3/1
f 40/3/1 33/3/1 39/3/1
f 42/1/1 40/1/1 39/1/1
f 42/1/1 41/1/1 40/1/1
f 42/1/1 39/1/1 38/1/1
f 43/1/1 41/1/1 42/1/1
f 44/1/1 42/1/1 38/1/1
f 45/1/1 42/1/1 44/1/1
f 46/1/1 44/1/1 38/1/1
f 47/1/1 44/1/1 46/1/1
f 48/1/1 46/1/1 38/1/1
f 49/1/1 46/1/1 48/1/1
f 52/10/1 51/10/1 50/10/1
f 53/10/1 51/10/1 52/10/1
f 58/7/1 55/7/1 54/7/1
f 59/7/1 55/7/1 58/7/1
f 60/7/1 57/7/1 56/7/1
f 61/7/1 57/7/1 60/7/1
f 62/3/1 59/3/1 58/3/1
f 63/3/1 59/3/1 62/3/1
f 64/3/1 61/3/1 60/3/1
f 65/3/1 61/3/1 64/3/1
f 66/6/1 63/6/1 62/6/1
f 67/6/1 63/6/1 66/6/1
f 68/6/1 65/6/1 64/6/1
f 69/6/1 65/6/1 68/6/1
f 73/5/1 71/5/1 70/5/1
f 74/5/1 71/5/1 73/5/1
f 75/5/1 73/5/1 72/5/1
f 76/5/1 73/5/1 75/5/1
f 79/10/1 78/10/1 77/10/1
f 80/10/1 78/10/1 79/10/1
f 83/9/1 82/9/1 81/9/1
f 84/9/1 82/9/1 83/9/1
f 87/5/1 86/5/1 85/5/1
f 88/5/1 86/5/1 87/5/1
f 91/10/1 90/10/1 89/10/1
f 92/10/1 90/10/1 91/10/1
f 95/10/1 94/10/1 93/10/1
f 96/10/1 95/10/1 93/10/1
f 97/10/1 95/10/1 96/10/1
f 100/5/1 99/5/1 98/5/1
f 101/5/1 99/5/1 100/5/1
f 105/5/1 103/5/1 102/5/1
f 106/5/1 103/5/1 105/5/1
f 107/5/1 105/5/1 104/5/1
f 108/5/1 105/5/1 107/5/1
f 111/5/1 110/5/1 109/5/1
f 112/5/1 110/5/1 111/5/1
f 113/5/2 114/5/2 115/5/2
f 115/5/2 114/5/2 116/5/2
f 117/5/2 118/5/2 120/5/2
f 120/5/2 118/5/2 121/5/2
f 119/5/2 120/5/2 122/5/2
f 122/5/2 120/5/2 123/5/2
f 124/5/2 125/5/2 126/5/2
f 126/5/2 125/5/2 127/5/2
f 128/10/2 129/10/2 130/10/2
f 128/10/2 130/10/2 131/10/2
f 131/10/2 130/10/2 132/10/2
f 133/10/2 134/10/2 135/10/2
f 135/10/2 134/10/2 136/10/2
f 137/5/2 138/5/2 139/5/2
f 139/5/2 138/5/2 140/5/2
f 141/9/2 142/9/2 143/9/2
f 143/9/2 142/9/2 144/9/2
f 145/5/2 146/5/2 148/5/2
f 148/5/2 146/5/2 149/5/2
f 147/5/2 148/5/2 150/5/2
f 150/5/2 148/5/2 151/5/2
f 152/10/2 153/10/2 154/10/2
f 154/10/2 153/10/2 155/10/2
f 156/7/2 157/7/2 160/7/2
f 160/7/2 157/7/2 161/7/2
f 158/7/2 159/7/2 162/7/2
f 162/7/2 159/7/2 163/7/2
f 160/3/2 161/3/2 164/3/2
f 164/3/2 161/3/2 165/3/2
f 162/3/2 163/3/2 166/3/2
f 166/3/2 163/3/2 167/3/2
f 164/6/2 165/6/2 168/6/2
f 168/6/2 165/6/2 169/6/2
f 166/6/2 167/6/2 170/6/2
f 170/6/2 167/6/2 171/6/2
f 172/1/2 173/1/2 174/1/2
f 174/1/2 173/1/2 175/1/2
f 176/5/2 177/5/2 178/5/2
f 178/5/2 177/5/2 179/5/2
f 174/3/2 175/3/2 181/3/2
f 181/3/2 175/3/2 182/3/2
f 181/1/2 182/1/2 184/1/2
f 182/1/2 183/1/2 184/1/2
f 180/1/2 181/1/2 184/1/2
f 184/1/2 183/1/2 185/1/2
f 180/1/2 184/1/2 186/1/2
f 186/1/2 184/1/2 187/1/2
f 180/1/2 186/1/2 188/1/2
f 188/1/2 186/1/2 189/1/2
f 180/1/2 188/1/2 190/1/2
f 190/1/2 188/1/2 191/1/2
f 192/10/2 193/10/2 194/10/2
f 194/10/2 193/10/2 195/10/2
f 196/5/2 197/5/2 198/5/2
f 198/5/2 197/5/2 199/5/2
f 200/5/2 201/5/2 202/5/2
f 202/5/2 201/5/2 203/5/2
f 204/10/2 205/10/2 207/10/2
f 206/10/2 207/10/2 209/10/2
f 208/10/2 209/10/2 211/10/2
f 210/10/2 211/10/2 212/10/2
f 207/10/2 205/10/2 213/10/2
f 212/10/2 211/10/2 213/10/2
f 209/10/2 207/10/2 213/10/2
f 211/10/2 209/10/2 213/10/2
f 214/5/2 215/5/2 217/5/2
f 217/5/2 215/5/2 218/5/2
f 216/5/2 217/5/2 219/5/2
f 219/5/2 217/5/2 220/5/2
f 221/5/2 222/5/2 223/5/2
f 223/5/2 222/5/2 224/5/2
f 227/5/3 226/5/3 225/5/3
f 228/5/3 226/5/3 227/5/3
f 232/5/3 230/5/3 229/5/3
f 233/5/3 230/5/3 232/5/3
f 234/5/3 232/5/3 231/5/3
f 235/5/3 232/5/3 234/5/3
f 237/5/3 236/5/3 235/5/3
f 238/5/3 236/5/3 237/5/3
f 242/5/3 240/5/3 239/5/3
f 243/5/3 240/5/3 242/5/3
f 243/5/3 242/5/3 241/5/3
f 244/5/3 240/5/3 243/5/3
f 245/5/3 243/5/3 241/5/3
f 246/5/3 243/5/3 245/5/3
f 247/5/3 245/5/3 241/5/3
f 249/5/3 248/5/3 247/5/3
f 251/5/3 249/5/3 247/5/3
f 251/5/3 250/5/3 249/5/3
f 251/5/3 247/5/3 241/5/3
f 252/5/3 250/5/3 251/5/3
f 253/5/3 250/5/3 252/5/3
f 254/5/3 250/5/3 253/5/3
f 258/5/3 256/5/3 255/5/3
f 259/5/3 256/5/3 258/5/3
f 260/5/3 258/5/3 257/5/3
f 261/5/3 258/5/3 260/5/3
f 264/5/3 263/5/3 262/5/3
f 265/5/3 263/5/3 264/5/3
f 267/5/3 266/5/3 265/5/3
f 268/5/3 266/5/3 267/5/3
f 271/5/3 270/5/3 269/5/3
f 272/5/3 270/5/3 271/5/3
f 275/10/3 274/10/3 273/10/3
f 276/10/3 274/10/3 275/10/3
f 277/10/3 274/10/3 276/10/3
f 278/10/3 274/10/3 277/10/3
f 282/10/3 280/10/3 279/10/3
f 283/10/3 282/10/3 281/10/3
f 284/10/3 280/10/3 282/10/3
f 284/10/3 282/10/3 283/10/3
f 289/1/3 286/1/3 285/1/3
f 290/1/3 286/1/3 289/1/3
f 291/1/3 286/1/3 290/1/3
f 294/1/3 289/1/3 285/1/3
f 294/11/3 290/11/3 289/11/3
f 295/1/3 292/1/3 291/1/3
f 295/11/3 290/11/3 294/11/3
f 295/1/3 291/1/3 290/1/3
f 296/8/3 293/8/3 292/8/3
f 296/1/3 292/1/3 295/1/3
f 297/8/3 293/8/3 296/8/3
f 298/10/3 288/10/3 287/10/3
f 299/1/3 295/1/3 294/1/3
f 299/1/3 294/1/3 285/1/3
f 299/1/3 296/1/3 295/1/3
f 300/1/3 296/1/3 299/1/3
f 301/4/3 297/4/3 296/4/3
f 301/1/3 296/1/3 300/1/3
f 301/4/3 298/4/3 297/4/3
f 302/4/3 298/4/3 301/4/3
f 303/10/3 288/10/3 298/10/3
f 303/4/3 298/4/3 302/4/3
f 304/1/3 301/1/3 300/1/3
f 305/8/3 302/8/3 301/8/3
f 305/1/3 301/1/3 304/1/3
f 306/8/3 302/8/3 305/8/3
f 307/11/3 300/11/3 299/11/3
f 307/1/3 299/1/3 285/1/3
f 308/1/3 304/1/3 300/1/3
f 308/11/3 300/11/3 307/11/3
f 309/1/3 307/1/3 285/1/3
f 309/1/3 308/1/3 307/1/3
f 310/1/3 304/1/3 308/1/3
f 310/1/3 308/1/3 309/1/3
f 311/10/3 288/10/3 303/10/3
f 312/10/3 288/10/3 311/10/3
f 317/7/3 314/7/3 313/7/3
f 317/3/3 315/3/3 314/3/3
f 318/6/3 316/6/3 315/6/3
f 318/3/3 315/3/3 317/3/3
f 319/2/3 318/2/3 317/2/3
f 319/6/3 316/6/3 318/6/3
f 320/6/3 316/6/3 319/6/3
f 321/6/3 316/6/3 320/6/3
f 322/6/3 316/6/3 321/6/3
f 323/7/3 317/7/3 313/7/3
f 323/2/3 319/2/3 317/2/3
f 323/2/3 320/2/3 319/2/3
f 324/2/3 320/2/3 323/2/3
f 325/3/3 321/3/3 320/3/3
f 325/2/3 320/2/3 324/2/3
f 326/2/3 322/2/3 321/2/3
f 326/3/3 321/3/3 325/3/3
f 327/2/3 322/2/3 326/2/3
f 328/2/3 322/2/3 327/2/3
f 329/2/3 325/2/3 324/2/3
f 329/3/3 324/3/3 323/3/3
f 329/2/3 326/2/3 325/2/3
f 329/2/3 327/2/3 326/2/3
f 330/2/3 327/2/3 329/2/3
f 331/3/3 330/3/3 329/3/3
f 331/2/3 327/2/3 330/2/3
f 332/2/3 327/2/3 331/2/3
f 333/3/3 328/3/3 327/3/3
f 333/2/3 327/2/3 332/2/3
f 334/3/3 328/3/3 333/3/3
f 335/3/3 332/3/3 331/3/3
f 335/3/3 329/3/3 323/3/3
f 335/3/3 331/3/3 329/3/3
f 336/2/3 334/2/3 333/2/3
f 336/3/3 332/3/3 335/3/3
f 336/2/3 333/2/3 332/2/3
f 337/2/3 334/2/3 336/2/3
f 338/7/3 323/7/3 313/7/3
f 339/3/3 335/3/3 323/3/3
f 339/7/3 323/7/3 338/7/3
f 340/6/3 336/6/3 335/6/3
f 340/3/3 335/3/3 339/3/3
f 340/6/3 337/6/3 336/6/3
f 341/6/3 337/6/3 340/6/3
f 344/10/3 343/10/3 342/10/3
f 345/10/3 343/10/3 344/10/3
f 351/10/3 347/10/3 346/10/3
f 352/10/3 347/10/3 351/10/3
f 353/1/3 349/1/3 348/1/3
f 354/1/3 349/1/3 353/1/3
f 355/3/3 350/3/3 349/3/3
f 355/1/3 349/1/3 354/1/3
f 356/3/3 350/3/3 355/3/3
f 359/9/3 358/9/3 357/9/3
f 360/9/3 358/9/3 359/9/3
f 365/1/3 362/1/3 361/1/3
f 365/1/3 363/1/3 362/1/3
f 366/3/3 364/3/3 363/3/3
f 366/1/3 363/1/3 365/1/3
f 367/3/3 364/3/3 366/3/3
f 370/10/3 369/10/3 368/10/3
f 371/10/3 369/10/3 370/10/3
f 374/10/3 373/10/3 372/10/3
f 375/10/3 373/10/3 374/10/3
f 378/10/3 377/10/3 376/10/3
f 379/10/3 377/10/3 378/10/3
f 382/10/3 381/10/3 380/10/3
f 383/10/3 381/10/3 382/10/3
f 386/10/3 385/10/3 384/10/3
f 387/10/3 385/10/3 386/10/3
f 391/5/3 389/5/3 388/5/3
f 392/5/3 391/5/3 390/5/3
f 393/5/3 389/5/3 391/5/3
f 393/5/3 391/5/3 392/5/3
f 394/5/3 389/5/3 393/5/3
f 395/5/3 389/5/3 394/5/3
f 396/5/4 397/5/4 398/5/4
f 398/5/4 397/5/4 399/5/4
f 400/5/4 401/5/4 402/5/4
f 402/5/4 401/5/4 403/5/4
f 404/5/4 405/5/4 406/5/4
f 406/5/4 405/5/4 407/5/4
f 408/5/4 409/5/4 410/5/4
f 410/5/4 409/5/4 411/5/4
f 408/5/4 410/5/4 412/5/4
f 408/5/4 412/5/4 414/5/4
f 412/5/4 413/5/4 414/5/4
f 414/5/4 413/5/4 415/5/4
f 416/5/4 417/5/4 419/5/4
f 419/5/4 417/5/4 420/5/4
f 418/5/4 419/5/4 421/5/4
f 421/5/4 419/5/4 422/5/4
f 422/5/4 423/5/4 424/5/4
f 424/5/4 423/5/4 425/5/4
f 426/1/4 427/1/4 429/1/4
f 429/1/4 427/1/4 430/1/4
f 427/3/4 428/3/4 431/3/4
f 430/1/4 427/1/4 431/1/4
f 431/3/4 428/3/4 432/3/4
f 433/1/4 434/1/4 437/1/4
f 434/1/4 435/1/4 437/1/4
f 435/3/4 436/3/4 438/3/4
f 437/1/4 435/1/4 438/1/4
f 438/3/4 436/3/4 439/3/4
f 440/9/4 441/9/4 442/9/4
f 442/9/4 441/9/4 443/9/4
f 448/10/4 449/10/4 450/10/4
f 450/10/4 449/10/4 451/10/4
f 444/7/4 445/7/4 452/7/4
f 445/3/4 446/3/4 453/3/4
f 452/7/4 445/7/4 453/7/4
f 446/6/4 447/6/4 454/6/4
f 453/3/4 446/3/4 454/3/4
f 454/6/4 447/6/4 455/6/4
f 456/1/4 457/1/4 460/1/4
f 460/1/4 457/1/4 461/1/4
f 458/10/4 459/10/4 462/10/4
f 462/10/4 459/10/4 463/10/4
f 464/10/4 465/10/4 466/10/4
f 466/10/4 465/10/4 467/10/4
f 468/5/4 469/5/4 471/5/4
f 470/5/4 471/5/4 473/5/4
f 472/5/4 473/5/4 474/5/4
f 473/5/4 471/5/4 475/5/4
f 474/5/4 473/5/4 475/5/4
f 475/5/4 471/5/4 476/5/4
f 471/5/4 469/5/4 477/5/4
f 476/5/4 471/5/4 477/5/4
f 477/5/4 469/5/4 478/5/4
f 478/5/4 469/5/4 479/5/4
f 482/5/5 481/5/5 480/5/5
f 483/5/5 481/5/5 482/5/5
f 487/5/5 485/5/5 484/5/5
f 488/5/5 485/5/5 487/5/5
f 490/5/5 487/5/5 486/5/5
f 490/5/5 489/5/5 488/5/5
f 490/5/5 488/5/5 487/5/5
f 491/5/5 489/5/5 490/5/5
f 492/5/5 490/5/5 486/5/5
f 493/5/5 490/5/5 492/5/5
f 494/5/5 489/5/5 491/5/5
f 495/5/5 489/5/5 494/5/5
f 498/5/5 497/5/5 496/5/5
f 499/5/5 497/5/5 498/5/5
f 505/5/5 501/5/5 500/5/5
f 506/5/5 501/5/5 505/5/5
f 507/5/5 503/5/5 502/5/5
f 508/5/5 503/5/5 507/5/5
f 510/5/5 505/5/5 504/5/5
f 511/5/5 505/5/5 510/5/5
f 512/5/5 509/5/5 508/5/5
f 513/5/5 509/5/5 512/5/5
f 517/5/5 515/5/5 514/5/5
f 518/5/5 515/5/5 517/5/5
f 520/5/5 517/5/5 516/5/5
f 521/5/5 517/5/5 520/5/5
f 522/5/5 519/5/5 518/5/5
f 523/5/5 519/5/5 522/5/5
f 526/1/5 525/1/5 524/1/5
f 527/1/5 525/1/5 526/1/5
f 528/1/5 525/1/5 527/1/5
f 529/1/5 525/1/5 528/1/5
f 530/1/5 525/1/5 529/1/5
f 531/1/5 525/1/5 530/1/5
f 532/1/5 526/1/5 524/1/5
f 533/1/5 526/1/5 532/1/5
f 534/1/5 525/1/5 531/1/5
f 535/1/5 525/1/5 534/1/5
f 540/1/5 537/1/5 536/1/5
f 541/1/5 539/1/5 538/1/5
f 542/1/5 540/1/5 536/1/5
f 542/1/5 541/1/5 540/1/5
f 543/1/5 539/1/5 541/1/5
f 543/1/5 541/1/5 542/1/5
f 548/10/5 545/10/5 544/10/5
f 549/10/5 547/10/5 546/10/5
f 550/10/5 548/10/5 544/10/5
f 550/10/5 549/10/5 548/10/5
f 551/10/5 547/10/5 549/10/5
f 551/10/5 549/10/5 550/10/5
f 556/10/5 553/10/5 552/10/5
f 557/10/5 553/10/5 556/10/5
f 558/10/5 555/10/5 554/10/5
f 559/10/5 555/10/5 558/10/5
f 564/10/5 561/10/5 560/10/5
f 565/10/5 561/10/5 564/10/5
f 566/10/5 563/10/5 562/10/5
f 567/10/5 563/10/5 566/10/5
f 572/10/5 569/10/5 568/10/5
f 573/10/5 569/10/5 572/10/5
f 574/10/5 571/10/5 570/10/5
f 575/10/5 571/10/5 574/10/5
f 576/10/5 572/10/5 568/10/5
f 577/10/5 572/10/5 576/10/5
f 578/10/5 571/10/5 575/10/5
f 579/10/5 571/10/5 578/10/5
f 584/10/5 581/10/5 580/10/5
f 585/10/5 581/10/5 584/10/5
f 586/10/5 583/10/5 582/10/5
f 587/10/5 583/10/5 586/10/5
f 590/10/5 589/10/5 588/10/5
f 591/10/5 589/10/5 590/10/5
f 592/10/5 590/10/5 588/10/5
f 593/10/5 589/10/5 591/10/5
f 594/10/5 592/10/5 588/10/5
f 594/10/5 593/10/5 592/10/5
f 595/10/5 589/10/5 593/10/5
f 595/10/5 593/10/5 594/10/5
f 596/5/6 597/5/6 598/5/6
f 598/5/6 597/5/6 599/5/6
f 596/5/6 598/5/6 600/5/6
f 600/5/6 598/5/6 601/5/6
f 599/5/6 597/5/6 602/5/6
f 602/5/6 597/5/6 603/5/6
f 596/5/6 600/5/6 604/5/6
f 603/5/6 597/5/6 607/5/6
f 604/5/6 605/5/6 608/5/6
f 606/5/6 607/5/6 609/5/6
f 604/5/6 608/5/6 610/5/6
f 608/5/6 609/5/6 610/5/6
f 596/5/6 604/5/6 610/5/6
f 609/5/6 607/5/6 611/5/6
f 610/5/6 609/5/6 611/5/6
f 607/5/6 597/5/6 611/5/6
f 612/5/6 613/5/6 615/5/6
f 615/5/6 613/5/6 616/5/6
f 614/5/6 615/5/6 618/5/6
f 618/5/6 615/5/6 619/5/6
f 616/5/6 617/5/6 620/5/6
f 620/5/6 617/5/6 621/5/6
f 622/5/6 623/5/6 625/5/6
f 625/5/6 623/5/6 626/5/6
f 624/5/6 625/5/6 628/5/6
f 626/5/6 627/5/6 628/5/6
f 625/5/6 626/5/6 628/5/6
f 628/5/6 627/5/6 629/5/6
f 630/5/6 631/5/6 633/5/6
f 633/5/6 631/5/6 634/5/6
f 634/5/6 631/5/6 635/5/6
f 635/5/6 631/5/6 636/5/6
f 632/5/6 633/5/6 639/5/6
f 633/5/6 634/5/6 639/5/6
f 639/5/6 634/5/6 640/5/6
f 640/5/6 634/5/6 641/5/6
f 635/5/6 636/5/6 642/5/6
f 636/5/6 637/5/6 642/5/6
f 642/5/6 637/5/6 643/5/6
f 643/5/6 637/5/6 644/5/6
f 639/5/6 640/5/6 647/5/6
f 638/5/6 639/5/6 647/5/6
f 647/5/6 640/5/6 648/5/6
f 648/5/6 640/5/6 649/5/6
f 644/5/6 645/5/6 650/5/6
f 643/5/6 644/5/6 650/5/6
f 650/5/6 645/5/6 651/5/6
f 651/5/6 645/5/6 652/5/6
f 647/5/6 648/5/6 654/5/6
f 646/5/6 647/5/6 654/5/6
f 654/5/6 648/5/6 655/5/6
f 652/5/6 653/5/6 656/5/6
f 651/5/6 652/5/6 656/5/6
f 656/5/6 653/5/6 657/5/6
f 646/5/6 654/5/6 658/5/6
f 657/5/6 653/5/6 659/5/6
f 646/5/6 658/5/6 660/5/6
f 658/5/6 659/5/6 660/5/6
f 659/5/6 653/5/6 661/5/6
f 660/5/6 659/5/6 661/5/6
f 662/10/6 663/10/6 666/10/6
f 666/10/6 663/10/6 667/10/6
f 664/10/6 665/10/6 668/10/6
f 668/10/6 665/10/6 669/10/6
f 662/10/6 666/10/6 670/10/6
f 669/10/6 665/10/6 671/10/6
f 662/10/6 670/10/6 672/10/6
f 670/10/6 671/10/6 672/10/6
f 671/10/6 665/10/6 673/10/6
f 672/10/6 671/10/6 673/10/6
f 674/10/6 675/10/6 676/10/6
f 676/10/6 675/10/6 677/10/6
f 674/10/6 676/10/6 678/10/6
f 677/10/6 675/10/6 679/10/6
f 674/10/6 678/10/6 680/10/6
f 678/10/6 679/10/6 680/10/6
f 679/10/6 675/10/6 681/10/6
f 680/10/6 679/10/6 681/10/6
f 682/10/6 683/10/6 684/10/6
f 684/10/6 683/10/6 685/10/6
