# MagicaVoxel @ Ephtracy

# group
o 

# material
mtllib momo_boat.mtl
usemtl palette

# normals
vn -1 0 0
vn 1 0 0
vn 0 0 1
vn 0 0 -1
vn 0 -1 0
vn 0 1 0

# texcoords
vt 0.0332031 0.5
vt 0.0488281 0.5
vt 0.119141 0.5
vt 0.123047 0.5
vt 0.228516 0.5
vt 0.279297 0.5
vt 0.654297 0.5
vt 0.822266 0.5
vt 0.962891 0.5
vt 0.978516 0.5
vt 0.990234 0.5
vt 0.994141 0.5

# verts
v -1.2 1.1 0.9
v -1.2 1.1 -1.2
v -1.2 1.4 0.9
v -1.2 1.4 -1.2
v -1 0.9 0.9
v -1 0.9 -1.2
v -1 1.1 1.1
v -1 1.1 0.9
v -1 1.1 -1.2
v -1 1.4 1.1
v -1 1.4 0.9
v -0.8 0.7 0.7
v -0.8 0.7 -1.2
v -0.8 0.9 0.7
v -0.8 0.9 -1.2
v -0.8 1.7 -0.5
v -0.8 1.7 -0.9
v -0.8 1.9 -0.3
v -0.8 1.9 -0.5
v -0.8 2.1 -0.1
v -0.8 2.1 -0.3
v -0.8 2.2 0.4
v -0.8 2.2 -0.1
v -0.8 2.6 0.4
v -0.8 2.6 -0.9
v -0.7 0.9 1.1
v -0.7 0.9 0.9
v -0.7 1.1 1.1
v -0.7 1.1 0.9
v -0.6 0.9 -0.1
v -0.6 0.9 -0.3
v -0.6 1.1 -0.1
v -0.6 1.1 -0.3
v -0.6 1.2 1.3
v -0.6 1.2 1.1
v -0.6 1.4 1.3
v -0.6 1.4 1.1
v -0.6 1.5 0.3
v -0.6 1.5 -0.1
v -0.6 1.5 -0.3
v -0.6 1.5 -0.7
v -0.6 1.7 -0.5
v -0.6 1.7 -0.7
v -0.6 1.9 -0.3
v -0.6 1.9 -0.5
v -0.6 2.1 -0.1
v -0.6 2.1 -0.3
v -0.6 2.2 0.3
v -0.6 2.2 -0.1
v -0.6 2.6 0.3
v -0.6 2.6 -0.7
v -0.6 2.7 0.3
v -0.6 2.7 -0.7
v -0.4 0.9 0.1
v -0.4 0.9 -0.1
v -0.4 0.9 -0.3
v -0.4 0.9 -0.5
v -0.4 1 0.1
v -0.4 1 -0.1
v -0.4 1 -0.3
v -0.4 1 -0.5
v -0.4 1.1 0.1
v -0.4 1.1 -0.1
v -0.4 1.1 -0.3
v -0.4 1.1 -0.5
v -0.4 1.5 0.1
v -0.4 1.5 -0.1
v -0.4 1.5 -0.3
v -0.4 1.5 -0.5
v -0.3 1 1.3
v -0.3 1 1.1
v -0.3 1.2 1.5
v -0.3 1.2 1.3
v -0.3 1.2 1.1
v -0.3 1.4 1.5
v -0.3 1.4 1.3
v -0.3 2.8 0
v -0.3 2.8 -0.5
v -0.3 3 0
v -0.3 3 -0.5
v -0.2 2.7 -0.1
v -0.2 2.7 -0.4
v -0.2 2.8 -0.1
v -0.2 2.8 -0.4
v -0.1 0 -0.1
v -0.1 0 -0.2
v -0.1 0.7 -0.1
v -0.1 0.7 -0.2
v 0.0999999 1.2 1.3
v 0.0999999 1.2 1.1
v 0.0999999 1.4 1.3
v 0.0999999 1.4 1.1
v 0.2 2.5 0.4
v 0.2 2.5 0.3
v 0.2 2.6 0.4
v 0.2 2.6 0.3
v 0.3 2.2 0.4
v 0.3 2.2 0.3
v 0.3 2.3 0.3
v 0.3 2.5 0.4
v 0.3 2.5 0.3
v 0.4 1.2 1.1
v 0.4 1.2 0.9
v 0.4 1.4 1.1
v 0.4 1.4 0.9
v 0.8 0.9 0.7
v 0.8 0.9 -1
v 0.8 1.1 0.9
v 0.8 1.1 0.7
v 0.8 1.1 -1
v 0.8 1.4 0.9
v 0.8 1.4 0.7
v 1 1.1 0.7
v 1 1.1 -1
v 1 1.4 0.7
v 1 1.4 -1
v -1 1.1 0.7
v -1 1.1 -1
v -1 1.4 0.7
v -1 1.4 -1
v -0.8 0.9 0.7
v -0.8 0.9 -1
v -0.8 1.1 0.9
v -0.8 1.1 0.7
v -0.8 1.1 -1
v -0.8 1.4 0.9
v -0.8 1.4 0.7
v -0.4 1.2 1.1
v -0.4 1.2 0.9
v -0.4 1.4 1.1
v -0.4 1.4 0.9
v -0.3 2.2 0.4
v -0.3 2.2 0.3
v -0.3 2.3 0.3
v -0.3 2.5 0.4
v -0.3 2.5 0.3
v -0.2 2.5 0.4
v -0.2 2.5 0.3
v -0.2 2.6 0.4
v -0.2 2.6 0.3
v -0.1 1.2 1.3
v -0.1 1.2 1.1
v -0.1 1.4 1.3
v -0.1 1.4 1.1
v 0 0 -0.1
v 0 0 -0.2
v 0 0.7 -0.1
v 0 0.7 -0.2
v 0.2 2.7 -0.1
v 0.2 2.7 -0.4
v 0.2 2.8 -0.1
v 0.2 2.8 -0.4
v 0.3 1 1.3
v 0.3 1 1.1
v 0.3 1.2 1.5
v 0.3 1.2 1.3
v 0.3 1.2 1.1
v 0.3 1.4 1.5
v 0.3 1.4 1.3
v 0.3 2.8 0
v 0.3 2.8 -0.5
v 0.3 3 0
v 0.3 3 -0.5
v 0.4 0.9 0.1
v 0.4 0.9 -0.1
v 0.4 0.9 -0.3
v 0.4 0.9 -0.5
v 0.4 1 0.1
v 0.4 1 -0.1
v 0.4 1 -0.3
v 0.4 1 -0.5
v 0.4 1.1 0.1
v 0.4 1.1 -0.1
v 0.4 1.1 -0.3
v 0.4 1.1 -0.5
v 0.4 1.5 0.1
v 0.4 1.5 -0.1
v 0.4 1.5 -0.3
v 0.4 1.5 -0.5
v 0.6 0.9 -0.1
v 0.6 0.9 -0.3
v 0.6 1.1 -0.1
v 0.6 1.1 -0.3
v 0.6 1.2 1.3
v 0.6 1.2 1.1
v 0.6 1.4 1.3
v 0.6 1.4 1.1
v 0.6 1.5 0.3
v 0.6 1.5 -0.1
v 0.6 1.5 -0.3
v 0.6 1.5 -0.7
v 0.6 1.7 -0.5
v 0.6 1.7 -0.7
v 0.6 1.9 -0.3
v 0.6 1.9 -0.5
v 0.6 2.1 -0.1
v 0.6 2.1 -0.3
v 0.6 2.2 0.3
v 0.6 2.2 -0.1
v 0.6 2.6 0.3
v 0.6 2.6 -0.7
v 0.6 2.7 0.3
v 0.6 2.7 -0.7
v 0.7 0.9 1.1
v 0.7 0.9 0.9
v 0.7 1.1 1.1
v 0.7 1.1 0.9
v 0.8 0.7 0.7
v 0.8 0.7 -1.2
v 0.8 0.9 0.7
v 0.8 0.9 -1.2
v 0.8 1.7 -0.5
v 0.8 1.7 -0.9
v 0.8 1.9 -0.3
v 0.8 1.9 -0.5
v 0.8 2.1 -0.1
v 0.8 2.1 -0.3
v 0.8 2.2 0.4
v 0.8 2.2 -0.1
v 0.8 2.6 0.4
v 0.8 2.6 -0.9
v 1 0.9 0.9
v 1 0.9 -1.2
v 1 1.1 1.1
v 1 1.1 0.9
v 1 1.1 -1.2
v 1 1.4 1.1
v 1 1.4 0.9
v 1.2 1.1 0.9
v 1.2 1.1 -1.2
v 1.2 1.4 0.9
v 1.2 1.4 -1.2
v -0.3 1.2 1.5
v -0.3 1.4 1.5
v 0.3 1.2 1.5
v 0.3 1.4 1.5
v -0.6 1.2 1.3
v -0.6 1.4 1.3
v -0.3 1 1.3
v -0.3 1.2 1.3
v -0.3 1.4 1.3
v 0.3 1 1.3
v 0.3 1.2 1.3
v 0.3 1.4 1.3
v 0.6 1.2 1.3
v 0.6 1.4 1.3
v -1 1.1 1.1
v -1 1.4 1.1
v -0.7 0.9 1.1
v -0.7 1.1 1.1
v -0.6 1.2 1.1
v -0.6 1.4 1.1
v -0.3 1 1.1
v -0.3 1.2 1.1
v 0.3 1 1.1
v 0.3 1.2 1.1
v 0.6 1.2 1.1
v 0.6 1.4 1.1
v 0.7 0.9 1.1
v 0.7 1.1 1.1
v 1 1.1 1.1
v 1 1.4 1.1
v -1.2 1.1 0.9
v -1.2 1.4 0.9
v -1 0.9 0.9
v -1 1.1 0.9
v -1 1.4 0.9
v -0.7 0.9 0.9
v -0.7 1.1 0.9
v 0.7 0.9 0.9
v 0.7 1.1 0.9
v 1 0.9 0.9
v 1 1.1 0.9
v 1 1.4 0.9
v 1.2 1.1 0.9
v 1.2 1.4 0.9
v -0.8 0.7 0.7
v -0.8 0.9 0.7
v 0.8 0.7 0.7
v 0.8 0.9 0.7
v -0.8 2.2 0.4
v -0.8 2.6 0.4
v -0.3 2.2 0.4
v -0.3 2.5 0.4
v -0.2 2.5 0.4
v -0.2 2.6 0.4
v 0.2 2.5 0.4
v 0.2 2.6 0.4
v 0.3 2.2 0.4
v 0.3 2.5 0.4
v 0.8 2.2 0.4
v 0.8 2.6 0.4
v -0.6 1.5 0.3
v -0.6 2.2 0.3
v -0.6 2.6 0.3
v -0.6 2.7 0.3
v -0.4 1.7 0.3
v -0.4 2.1 0.3
v -0.3 2.2 0.3
v -0.3 2.3 0.3
v -0.3 2.5 0.3
v -0.2 1.7 0.3
v -0.2 2.1 0.3
v -0.2 2.3 0.3
v -0.2 2.5 0.3
v -0.2 2.6 0.3
v 0.2 1.7 0.3
v 0.2 2.1 0.3
v 0.2 2.3 0.3
v 0.2 2.5 0.3
v 0.2 2.6 0.3
v 0.3 2.2 0.3
v 0.3 2.3 0.3
v 0.3 2.5 0.3
v 0.4 1.7 0.3
v 0.4 2.1 0.3
v 0.6 1.5 0.3
v 0.6 2.2 0.3
v 0.6 2.6 0.3
v 0.6 2.7 0.3
v -0.4 0.9 0.1
v -0.4 1 0.1
v -0.4 1.1 0.1
v -0.4 1.5 0.1
v -0.3 1 0.1
v -0.3 1.1 0.1
v -0.2 1.1 0.1
v -0.2 1.2 0.1
v -0.2 1.3 0.1
v -0.2 1.5 0.1
v -0.1 1 0.1
v -0.1 1.1 0.1
v -0.1 1.2 0.1
v -0.1 1.3 0.1
v -0.1 1.4 0.1
v -0.1 1.5 0.1
v 0 1.1 0.1
v 0 1.2 0.1
v 0.0999999 1.2 0.1
v 0.0999999 1.3 0.1
v 0.0999999 1.4 0.1
v 0.0999999 1.5 0.1
v 0.2 1.1 0.1
v 0.2 1.3 0.1
v 0.2 1.5 0.1
v 0.4 0.9 0.1
v 0.4 1 0.1
v 0.4 1.1 0.1
v 0.4 1.5 0.1
v -0.3 2.8 0
v -0.3 3 0
v 0.3 2.8 0
v 0.3 3 0
v -0.8 2.1 -0.1
v -0.8 2.2 -0.1
v -0.6 0.9 -0.1
v -0.6 1.1 -0.1
v -0.6 1.5 -0.1
v -0.6 2.1 -0.1
v -0.6 2.2 -0.1
v -0.4 0.9 -0.1
v -0.4 1 -0.1
v -0.4 1.1 -0.1
v -0.4 1.5 -0.1
v -0.2 2.7 -0.1
v -0.2 2.8 -0.1
v -0.1 0 -0.1
v -0.1 0.7 -0.1
v 0 0 -0.1
v 0 0.7 -0.1
v 0.2 2.7 -0.1
v 0.2 2.8 -0.1
v 0.4 0.9 -0.1
v 0.4 1 -0.1
v 0.4 1.1 -0.1
v 0.4 1.5 -0.1
v 0.6 0.9 -0.1
v 0.6 1.1 -0.1
v 0.6 1.5 -0.1
v 0.6 2.1 -0.1
v 0.6 2.2 -0.1
v 0.8 2.1 -0.1
v 0.8 2.2 -0.1
v -0.8 1.9 -0.3
v -0.8 2.1 -0.3
v -0.6 1.9 -0.3
v -0.6 2.1 -0.3
v 0.6 1.9 -0.3
v 0.6 2.1 -0.3
v 0.8 1.9 -0.3
v 0.8 2.1 -0.3
v -0.8 1.7 -0.5
v -0.8 1.9 -0.5
v -0.6 1.7 -0.5
v -0.6 1.9 -0.5
v 0.6 1.7 -0.5
v 0.6 1.9 -0.5
v 0.8 1.7 -0.5
v 0.8 1.9 -0.5
v -1 1.1 -1
v -1 1.4 -1
v -0.8 0.9 -1
v -0.8 1.1 -1
v 0.8 0.9 -1
v 0.8 1.1 -1
v 1 1.1 -1
v 1 1.4 -1
v -0.1 1.2 1.3
v -0.1 1.4 1.3
v 0.0999999 1.2 1.3
v 0.0999999 1.4 1.3
v -0.4 1.2 1.1
v -0.4 1.4 1.1
v -0.1 1.2 1.1
v -0.1 1.4 1.1
v 0.0999999 1.2 1.1
v 0.0999999 1.4 1.1
v 0.4 1.2 1.1
v 0.4 1.4 1.1
v -0.8 1.1 0.9
v -0.8 1.4 0.9
v -0.4 1.2 0.9
v -0.4 1.4 0.9
v 0.4 1.2 0.9
v 0.4 1.4 0.9
v 0.8 1.1 0.9
v 0.8 1.4 0.9
v -1 1.1 0.7
v -1 1.4 0.7
v -0.8 0.9 0.7
v -0.8 1.1 0.7
v -0.8 1.4 0.7
v 0.8 0.9 0.7
v 0.8 1.1 0.7
v 0.8 1.4 0.7
v 1 1.1 0.7
v 1 1.4 0.7
v -0.1 0 -0.2
v -0.1 0.7 -0.2
v 0 0 -0.2
v 0 0.7 -0.2
v -0.6 0.9 -0.3
v -0.6 1.1 -0.3
v -0.6 1.5 -0.3
v -0.4 0.9 -0.3
v -0.4 1 -0.3
v -0.4 1.1 -0.3
v -0.4 1.5 -0.3
v 0.4 0.9 -0.3
v 0.4 1 -0.3
v 0.4 1.1 -0.3
v 0.4 1.5 -0.3
v 0.6 0.9 -0.3
v 0.6 1.1 -0.3
v 0.6 1.5 -0.3
v -0.2 2.7 -0.4
v -0.2 2.8 -0.4
v 0.2 2.7 -0.4
v 0.2 2.8 -0.4
v -0.4 0.9 -0.5
v -0.4 1 -0.5
v -0.4 1.1 -0.5
v -0.4 1.5 -0.5
v -0.3 2.8 -0.5
v -0.3 3 -0.5
v 0.3 2.8 -0.5
v 0.3 3 -0.5
v 0.4 0.9 -0.5
v 0.4 1 -0.5
v 0.4 1.1 -0.5
v 0.4 1.5 -0.5
v -0.6 1.5 -0.7
v -0.6 1.7 -0.7
v -0.6 2.6 -0.7
v -0.6 2.7 -0.7
v 0.6 1.5 -0.7
v 0.6 1.7 -0.7
v 0.6 2.6 -0.7
v 0.6 2.7 -0.7
v -0.8 1.7 -0.9
v -0.8 2.6 -0.9
v 0.8 1.7 -0.9
v 0.8 2.6 -0.9
v -1.2 1.1 -1.2
v -1.2 1.4 -1.2
v -1 0.9 -1.2
v -1 1.1 -1.2
v -0.8 0.7 -1.2
v -0.8 0.9 -1.2
v 0.8 0.7 -1.2
v 0.8 0.9 -1.2
v 1 0.9 -1.2
v 1 1.1 -1.2
v 1.2 1.1 -1.2
v 1.2 1.4 -1.2
v -0.1 0 -0.1
v 0 0 -0.1
v -0.1 0 -0.2
v 0 0 -0.2
v -0.8 0.7 0.7
v 0.8 0.7 0.7
v -0.1 0.7 -0.1
v 0 0.7 -0.1
v -0.1 0.7 -0.2
v 0 0.7 -0.2
v -0.8 0.7 -1.2
v 0.8 0.7 -1.2
v -0.7 0.9 1.1
v 0.7 0.9 1.1
v -1 0.9 0.9
v -0.7 0.9 0.9
v 0.7 0.9 0.9
v 1 0.9 0.9
v -0.8 0.9 0.7
v 0.8 0.9 0.7
v -1 0.9 -1.2
v -0.8 0.9 -1.2
v 0.8 0.9 -1.2
v 1 0.9 -1.2
v -0.3 1 1.3
v 0.3 1 1.3
v -0.3 1 1.1
v 0.3 1 1.1
v -1 1.1 1.1
v -0.7 1.1 1.1
v 0.7 1.1 1.1
v 1 1.1 1.1
v -1.2 1.1 0.9
v -1 1.1 0.9
v -0.7 1.1 0.9
v 0.7 1.1 0.9
v 1 1.1 0.9
v 1.2 1.1 0.9
v -1.2 1.1 -1.2
v -1 1.1 -1.2
v 1 1.1 -1.2
v 1.2 1.1 -1.2
v -0.3 1.2 1.5
v 0.3 1.2 1.5
v -0.6 1.2 1.3
v -0.3 1.2 1.3
v 0.3 1.2 1.3
v 0.6 1.2 1.3
v -0.6 1.2 1.1
v -0.3 1.2 1.1
v 0.3 1.2 1.1
v 0.6 1.2 1.1
v -0.6 1.5 0.3
v 0.6 1.5 0.3
v -0.4 1.5 0.1
v -0.2 1.5 0.1
v -0.1 1.5 0.1
v 0.0999999 1.5 0.1
v 0.2 1.5 0.1
v 0.4 1.5 0.1
v -0.6 1.5 -0.1
v -0.4 1.5 -0.1
v 0.4 1.5 -0.1
v 0.6 1.5 -0.1
v -0.6 1.5 -0.3
v -0.4 1.5 -0.3
v 0.4 1.5 -0.3
v 0.6 1.5 -0.3
v -0.4 1.5 -0.5
v 0.4 1.5 -0.5
v -0.6 1.5 -0.7
v 0.6 1.5 -0.7
v -0.8 1.7 -0.5
v -0.6 1.7 -0.5
v 0.6 1.7 -0.5
v 0.8 1.7 -0.5
v -0.6 1.7 -0.7
v 0.6 1.7 -0.7
v -0.8 1.7 -0.9
v 0.8 1.7 -0.9
v -0.8 1.9 -0.3
v -0.6 1.9 -0.3
v 0.6 1.9 -0.3
v 0.8 1.9 -0.3
v -0.8 1.9 -0.5
v -0.6 1.9 -0.5
v 0.6 1.9 -0.5
v 0.8 1.9 -0.5
v -0.8 2.1 -0.1
v -0.6 2.1 -0.1
v 0.6 2.1 -0.1
v 0.8 2.1 -0.1
v -0.8 2.1 -0.3
v -0.6 2.1 -0.3
v 0.6 2.1 -0.3
v 0.8 2.1 -0.3
v -0.8 2.2 0.4
v -0.3 2.2 0.4
v 0.3 2.2 0.4
v 0.8 2.2 0.4
v -0.6 2.2 0.3
v -0.3 2.2 0.3
v 0.3 2.2 0.3
v 0.6 2.2 0.3
v -0.8 2.2 -0.1
v -0.6 2.2 -0.1
v 0.6 2.2 -0.1
v 0.8 2.2 -0.1
v -0.3 2.5 0.4
v -0.2 2.5 0.4
v 0.2 2.5 0.4
v 0.3 2.5 0.4
v -0.3 2.5 0.3
v -0.2 2.5 0.3
v 0.2 2.5 0.3
v 0.3 2.5 0.3
v -0.3 2.8 0
v 0.3 2.8 0
v -0.2 2.8 -0.1
v 0.2 2.8 -0.1
v -0.2 2.8 -0.4
v 0.2 2.8 -0.4
v -0.3 2.8 -0.5
v 0.3 2.8 -0.5
v -0.8 0.9 0.7
v 0.8 0.9 0.7
v -0.4 0.9 0.1
v 0.4 0.9 0.1
v -0.6 0.9 -0.1
v -0.4 0.9 -0.1
v 0.4 0.9 -0.1
v 0.6 0.9 -0.1
v -0.6 0.9 -0.3
v -0.4 0.9 -0.3
v 0.4 0.9 -0.3
v 0.6 0.9 -0.3
v -0.4 0.9 -0.5
v 0.4 0.9 -0.5
v -0.8 0.9 -1
v 0.8 0.9 -1
v -0.8 1.1 0.9
v 0.8 1.1 0.9
v -1 1.1 0.7
v -0.8 1.1 0.7
v 0.8 1.1 0.7
v 1 1.1 0.7
v -1 1.1 -1
v -0.8 1.1 -1
v 0.8 1.1 -1
v 1 1.1 -1
v -0.1 1.2 1.3
v 0.0999999 1.2 1.3
v -0.4 1.2 1.1
v -0.1 1.2 1.1
v 0.0999999 1.2 1.1
v 0.4 1.2 1.1
v -0.4 1.2 0.9
v 0.4 1.2 0.9
v -0.3 1.4 1.5
v 0.3 1.4 1.5
v -0.6 1.4 1.3
v -0.3 1.4 1.3
v -0.1 1.4 1.3
v 0.0999999 1.4 1.3
v 0.3 1.4 1.3
v 0.6 1.4 1.3
v -1 1.4 1.1
v -0.6 1.4 1.1
v -0.4 1.4 1.1
v -0.1 1.4 1.1
v 0.0999999 1.4 1.1
v 0.4 1.4 1.1
v 0.6 1.4 1.1
v 1 1.4 1.1
v -1.2 1.4 0.9
v -1 1.4 0.9
v -0.8 1.4 0.9
v -0.4 1.4 0.9
v 0.4 1.4 0.9
v 0.8 1.4 0.9
v 1 1.4 0.9
v 1.2 1.4 0.9
v -1 1.4 0.7
v -0.8 1.4 0.7
v 0.8 1.4 0.7
v 1 1.4 0.7
v -1 1.4 -1
v 1 1.4 -1
v -1.2 1.4 -1.2
v 1.2 1.4 -1.2
v -0.8 2.6 0.4
v -0.2 2.6 0.4
v 0.2 2.6 0.4
v 0.8 2.6 0.4
v -0.6 2.6 0.3
v -0.2 2.6 0.3
v 0.2 2.6 0.3
v 0.6 2.6 0.3
v -0.6 2.6 -0.7
v 0.6 2.6 -0.7
v -0.8 2.6 -0.9
v 0.8 2.6 -0.9
v -0.6 2.7 0.3
v 0.6 2.7 0.3
v -0.2 2.7 -0.1
v 0.2 2.7 -0.1
v -0.2 2.7 -0.4
v 0.2 2.7 -0.4
v -0.6 2.7 -0.7
v 0.6 2.7 -0.7
v -0.3 3 0
v 0.3 3 0
v -0.3 3 -0.5
v 0.3 3 -0.5

# faces
f 3/5/1 2/5/1 1/5/1
f 4/5/1 2/5/1 3/5/1
f 8/5/1 6/5/1 5/5/1
f 9/5/1 6/5/1 8/5/1
f 10/5/1 8/5/1 7/5/1
f 11/5/1 8/5/1 10/5/1
f 14/5/1 13/5/1 12/5/1
f 15/5/1 13/5/1 14/5/1
f 19/11/1 17/11/1 16/11/1
f 21/11/1 19/11/1 18/11/1
f 23/11/1 21/11/1 20/11/1
f 24/11/1 23/11/1 22/11/1
f 25/11/1 17/11/1 19/11/1
f 25/11/1 23/11/1 24/11/1
f 25/11/1 19/11/1 21/11/1
f 25/11/1 21/11/1 23/11/1
f 28/5/1 27/5/1 26/5/1
f 29/5/1 27/5/1 28/5/1
f 32/1/1 31/1/1 30/1/1
f 33/1/1 31/1/1 32/1/1
f 36/5/1 35/5/1 34/5/1
f 37/5/1 35/5/1 36/5/1
f 39/3/1 33/3/1 32/3/1
f 40/3/1 33/3/1 39/3/1
f 42/1/1 40/1/1 39/1/1
f 42/1/1 41/1/1 40/1/1
f 42/1/1 39/1/1 38/1/1
f 43/1/1 41/1/1 42/1/1
f 44/1/1 42/1/1 38/1/1
f 45/1/1 42/1/1 44/1/1
f 46/1/1 44/1/1 38/1/1
f 47/1/1 44/1/1 46/1/1
f 48/1/1 46/1/1 38/1/1
f 49/1/1 46/1/1 48/1/1
f 52/11/1 51/11/1 50/11/1
f 53/11/1 51/11/1 52/11/1
f 58/7/1 55/7/1 54/7/1
f 59/7/1 55/7/1 58/7/1
f 60/7/1 57/7/1 56/7/1
f 61/7/1 57/7/1 60/7/1
f 62/3/1 59/3/1 58/3/1
f 63/3/1 59/3/1 62/3/1
f 64/3/1 61/3/1 60/3/1
f 65/3/1 61/3/1 64/3/1
f 66/6/1 63/6/1 62/6/1
f 67/6/1 63/6/1 66/6/1
f 68/6/1 65/6/1 64/6/1
f 69/6/1 65/6/1 68/6/1
f 73/5/1 71/5/1 70/5/1
f 74/5/1 71/5/1 73/5/1
f 75/5/1 73/5/1 72/5/1
f 76/5/1 73/5/1 75/5/1
f 79/11/1 78/11/1 77/11/1
f 80/11/1 78/11/1 79/11/1
f 83/10/1 82/10/1 81/10/1
f 84/10/1 82/10/1 83/10/1
f 87/8/1 86/8/1 85/8/1
f 88/8/1 86/8/1 87/8/1
f 91/5/1 90/5/1 89/5/1
f 92/5/1 90/5/1 91/5/1
f 95/11/1 94/11/1 93/11/1
f 96/11/1 94/11/1 95/11/1
f 99/11/1 98/11/1 97/11/1
f 100/11/1 99/11/1 97/11/1
f 101/11/1 99/11/1 100/11/1
f 104/5/1 103/5/1 102/5/1
f 105/5/1 103/5/1 104/5/1
f 109/5/1 107/5/1 106/5/1
f 110/5/1 107/5/1 109/5/1
f 111/5/1 109/5/1 108/5/1
f 112/5/1 109/5/1 111/5/1
f 115/5/1 114/5/1 113/5/1
f 116/5/1 114/5/1 115/5/1
f 117/5/2 118/5/2 119/5/2
f 119/5/2 118/5/2 120/5/2
f 121/5/2 122/5/2 124/5/2
f 124/5/2 122/5/2 125/5/2
f 123/5/2 124/5/2 126/5/2
f 126/5/2 124/5/2 127/5/2
f 128/5/2 129/5/2 130/5/2
f 130/5/2 129/5/2 131/5/2
f 132/11/2 133/11/2 134/11/2
f 132/11/2 134/11/2 135/11/2
f 135/11/2 134/11/2 136/11/2
f 137/11/2 138/11/2 139/11/2
f 139/11/2 138/11/2 140/11/2
f 141/5/2 142/5/2 143/5/2
f 143/5/2 142/5/2 144/5/2
f 145/8/2 146/8/2 147/8/2
f 147/8/2 146/8/2 148/8/2
f 149/10/2 150/10/2 151/10/2
f 151/10/2 150/10/2 152/10/2
f 153/5/2 154/5/2 156/5/2
f 156/5/2 154/5/2 157/5/2
f 155/5/2 156/5/2 158/5/2
f 158/5/2 156/5/2 159/5/2
f 160/11/2 161/11/2 162/11/2
f 162/11/2 161/11/2 163/11/2
f 164/7/2 165/7/2 168/7/2
f 168/7/2 165/7/2 169/7/2
f 166/7/2 167/7/2 170/7/2
f 170/7/2 167/7/2 171/7/2
f 168/3/2 169/3/2 172/3/2
f 172/3/2 169/3/2 173/3/2
f 170/3/2 171/3/2 174/3/2
f 174/3/2 171/3/2 175/3/2
f 172/6/2 173/6/2 176/6/2
f 176/6/2 173/6/2 177/6/2
f 174/6/2 175/6/2 178/6/2
f 178/6/2 175/6/2 179/6/2
f 180/1/2 181/1/2 182/1/2
f 182/1/2 181/1/2 183/1/2
f 184/5/2 185/5/2 186/5/2
f 186/5/2 185/5/2 187/5/2
f 182/3/2 183/3/2 189/3/2
f 189/3/2 183/3/2 190/3/2
f 189/1/2 190/1/2 192/1/2
f 190/1/2 191/1/2 192/1/2
f 188/1/2 189/1/2 192/1/2
f 192/1/2 191/1/2 193/1/2
f 188/1/2 192/1/2 194/1/2
f 194/1/2 192/1/2 195/1/2
f 188/1/2 194/1/2 196/1/2
f 196/1/2 194/1/2 197/1/2
f 188/1/2 196/1/2 198/1/2
f 198/1/2 196/1/2 199/1/2
f 200/11/2 201/11/2 202/11/2
f 202/11/2 201/11/2 203/11/2
f 204/5/2 205/5/2 206/5/2
f 206/5/2 205/5/2 207/5/2
f 208/5/2 209/5/2 210/5/2
f 210/5/2 209/5/2 211/5/2
f 212/11/2 213/11/2 215/11/2
f 214/11/2 215/11/2 217/11/2
f 216/11/2 217/11/2 219/11/2
f 218/11/2 219/11/2 220/11/2
f 215/11/2 213/11/2 221/11/2
f 220/11/2 219/11/2 221/11/2
f 217/11/2 215/11/2 221/11/2
f 219/11/2 217/11/2 221/11/2
f 222/5/2 223/5/2 225/5/2
f 225/5/2 223/5/2 226/5/2
f 224/5/2 225/5/2 227/5/2
f 227/5/2 225/5/2 228/5/2
f 229/5/2 230/5/2 231/5/2
f 231/5/2 230/5/2 232/5/2
f 235/5/3 234/5/3 233/5/3
f 236/5/3 234/5/3 235/5/3
f 240/5/3 238/5/3 237/5/3
f 241/5/3 238/5/3 240/5/3
f 242/5/3 240/5/3 239/5/3
f 243/5/3 240/5/3 242/5/3
f 245/5/3 244/5/3 243/5/3
f 246/5/3 244/5/3 245/5/3
f 250/5/3 248/5/3 247/5/3
f 251/5/3 248/5/3 250/5/3
f 251/5/3 250/5/3 249/5/3
f 252/5/3 248/5/3 251/5/3
f 253/5/3 251/5/3 249/5/3
f 254/5/3 251/5/3 253/5/3
f 255/5/3 253/5/3 249/5/3
f 257/5/3 256/5/3 255/5/3
f 259/5/3 257/5/3 255/5/3
f 259/5/3 258/5/3 257/5/3
f 259/5/3 255/5/3 249/5/3
f 260/5/3 258/5/3 259/5/3
f 261/5/3 258/5/3 260/5/3
f 262/5/3 258/5/3 261/5/3
f 266/5/3 264/5/3 263/5/3
f 267/5/3 264/5/3 266/5/3
f 268/5/3 266/5/3 265/5/3
f 269/5/3 266/5/3 268/5/3
f 272/5/3 271/5/3 270/5/3
f 273/5/3 271/5/3 272/5/3
f 275/5/3 274/5/3 273/5/3
f 276/5/3 274/5/3 275/5/3
f 279/5/3 278/5/3 277/5/3
f 280/5/3 278/5/3 279/5/3
f 283/11/3 282/11/3 281/11/3
f 284/11/3 282/11/3 283/11/3
f 285/11/3 282/11/3 284/11/3
f 286/11/3 282/11/3 285/11/3
f 290/11/3 288/11/3 287/11/3
f 291/11/3 290/11/3 289/11/3
f 292/11/3 288/11/3 290/11/3
f 292/11/3 290/11/3 291/11/3
f 297/1/3 294/1/3 293/1/3
f 298/1/3 294/1/3 297/1/3
f 299/1/3 294/1/3 298/1/3
f 302/1/3 297/1/3 293/1/3
f 302/12/3 298/12/3 297/12/3
f 303/1/3 300/1/3 299/1/3
f 303/12/3 298/12/3 302/12/3
f 303/1/3 299/1/3 298/1/3
f 304/9/3 301/9/3 300/9/3
f 304/1/3 300/1/3 303/1/3
f 305/9/3 301/9/3 304/9/3
f 306/11/3 296/11/3 295/11/3
f 307/1/3 303/1/3 302/1/3
f 307/1/3 302/1/3 293/1/3
f 307/1/3 304/1/3 303/1/3
f 308/1/3 304/1/3 307/1/3
f 309/4/3 305/4/3 304/4/3
f 309/1/3 304/1/3 308/1/3
f 309/4/3 306/4/3 305/4/3
f 310/4/3 306/4/3 309/4/3
f 311/11/3 296/11/3 306/11/3
f 311/4/3 306/4/3 310/4/3
f 312/1/3 309/1/3 308/1/3
f 313/9/3 310/9/3 309/9/3
f 313/1/3 309/1/3 312/1/3
f 314/9/3 310/9/3 313/9/3
f 315/12/3 308/12/3 307/12/3
f 315/1/3 307/1/3 293/1/3
f 316/1/3 312/1/3 308/1/3
f 316/12/3 308/12/3 315/12/3
f 317/1/3 315/1/3 293/1/3
f 317/1/3 316/1/3 315/1/3
f 318/1/3 312/1/3 316/1/3
f 318/1/3 316/1/3 317/1/3
f 319/11/3 296/11/3 311/11/3
f 320/11/3 296/11/3 319/11/3
f 325/7/3 322/7/3 321/7/3
f 325/3/3 323/3/3 322/3/3
f 326/6/3 324/6/3 323/6/3
f 326/3/3 323/3/3 325/3/3
f 327/2/3 326/2/3 325/2/3
f 327/6/3 324/6/3 326/6/3
f 328/6/3 324/6/3 327/6/3
f 329/6/3 324/6/3 328/6/3
f 330/6/3 324/6/3 329/6/3
f 331/7/3 325/7/3 321/7/3
f 331/2/3 327/2/3 325/2/3
f 331/2/3 328/2/3 327/2/3
f 332/2/3 328/2/3 331/2/3
f 333/3/3 329/3/3 328/3/3
f 333/2/3 328/2/3 332/2/3
f 334/2/3 330/2/3 329/2/3
f 334/3/3 329/3/3 333/3/3
f 335/2/3 330/2/3 334/2/3
f 336/2/3 330/2/3 335/2/3
f 337/2/3 333/2/3 332/2/3
f 337/3/3 332/3/3 331/3/3
f 337/2/3 334/2/3 333/2/3
f 337/2/3 335/2/3 334/2/3
f 338/2/3 335/2/3 337/2/3
f 339/3/3 338/3/3 337/3/3
f 339/2/3 335/2/3 338/2/3
f 340/2/3 335/2/3 339/2/3
f 341/3/3 336/3/3 335/3/3
f 341/2/3 335/2/3 340/2/3
f 342/3/3 336/3/3 341/3/3
f 343/3/3 340/3/3 339/3/3
f 343/3/3 337/3/3 331/3/3
f 343/3/3 339/3/3 337/3/3
f 344/2/3 342/2/3 341/2/3
f 344/3/3 340/3/3 343/3/3
f 344/2/3 341/2/3 340/2/3
f 345/2/3 342/2/3 344/2/3
f 346/7/3 331/7/3 321/7/3
f 347/3/3 343/3/3 331/3/3
f 347/7/3 331/7/3 346/7/3
f 348/6/3 344/6/3 343/6/3
f 348/3/3 343/3/3 347/3/3
f 348/6/3 345/6/3 344/6/3
f 349/6/3 345/6/3 348/6/3
f 352/11/3 351/11/3 350/11/3
f 353/11/3 351/11/3 352/11/3
f 359/11/3 355/11/3 354/11/3
f 360/11/3 355/11/3 359/11/3
f 361/1/3 357/1/3 356/1/3
f 362/1/3 357/1/3 361/1/3
f 363/3/3 358/3/3 357/3/3
f 363/1/3 357/1/3 362/1/3
f 364/3/3 358/3/3 363/3/3
f 369/8/3 368/8/3 367/8/3
f 370/8/3 368/8/3 369/8/3
f 371/10/3 366/10/3 365/10/3
f 372/10/3 366/10/3 371/10/3
f 377/1/3 374/1/3 373/1/3
f 377/1/3 375/1/3 374/1/3
f 378/3/3 376/3/3 375/3/3
f 378/1/3 375/1/3 377/1/3
f 379/3/3 376/3/3 378/3/3
f 382/11/3 381/11/3 380/11/3
f 383/11/3 381/11/3 382/11/3
f 386/11/3 385/11/3 384/11/3
f 387/11/3 385/11/3 386/11/3
f 390/11/3 389/11/3 388/11/3
f 391/11/3 389/11/3 390/11/3
f 394/11/3 393/11/3 392/11/3
f 395/11/3 393/11/3 394/11/3
f 398/11/3 397/11/3 396/11/3
f 399/11/3 397/11/3 398/11/3
f 403/5/3 401/5/3 400/5/3
f 404/5/3 403/5/3 402/5/3
f 405/5/3 401/5/3 403/5/3
f 405/5/3 403/5/3 404/5/3
f 406/5/3 401/5/3 405/5/3
f 407/5/3 401/5/3 406/5/3
f 408/5/4 409/5/4 410/5/4
f 410/5/4 409/5/4 411/5/4
f 412/5/4 413/5/4 414/5/4
f 414/5/4 413/5/4 415/5/4
f 416/5/4 417/5/4 418/5/4
f 418/5/4 417/5/4 419/5/4
f 420/5/4 421/5/4 422/5/4
f 422/5/4 421/5/4 423/5/4
f 420/5/4 422/5/4 424/5/4
f 420/5/4 424/5/4 426/5/4
f 424/5/4 425/5/4 426/5/4
f 426/5/4 425/5/4 427/5/4
f 428/5/4 429/5/4 431/5/4
f 431/5/4 429/5/4 432/5/4
f 430/5/4 431/5/4 433/5/4
f 433/5/4 431/5/4 434/5/4
f 434/5/4 435/5/4 436/5/4
f 436/5/4 435/5/4 437/5/4
f 438/8/4 439/8/4 440/8/4
f 440/8/4 439/8/4 441/8/4
f 442/1/4 443/1/4 445/1/4
f 445/1/4 443/1/4 446/1/4
f 443/3/4 444/3/4 447/3/4
f 446/1/4 443/1/4 447/1/4
f 447/3/4 444/3/4 448/3/4
f 449/1/4 450/1/4 453/1/4
f 450/1/4 451/1/4 453/1/4
f 451/3/4 452/3/4 454/3/4
f 453/1/4 451/1/4 454/1/4
f 454/3/4 452/3/4 455/3/4
f 456/10/4 457/10/4 458/10/4
f 458/10/4 457/10/4 459/10/4
f 464/11/4 465/11/4 466/11/4
f 466/11/4 465/11/4 467/11/4
f 460/7/4 461/7/4 468/7/4
f 461/3/4 462/3/4 469/3/4
f 468/7/4 461/7/4 469/7/4
f 462/6/4 463/6/4 470/6/4
f 469/3/4 462/3/4 470/3/4
f 470/6/4 463/6/4 471/6/4
f 472/1/4 473/1/4 476/1/4
f 476/1/4 473/1/4 477/1/4
f 474/11/4 475/11/4 478/11/4
f 478/11/4 475/11/4 479/11/4
f 480/11/4 481/11/4 482/11/4
f 482/11/4 481/11/4 483/11/4
f 484/5/4 485/5/4 487/5/4
f 486/5/4 487/5/4 489/5/4
f 488/5/4 489/5/4 490/5/4
f 489/5/4 487/5/4 491/5/4
f 490/5/4 489/5/4 491/5/4
f 491/5/4 487/5/4 492/5/4
f 487/5/4 485/5/4 493/5/4
f 492/5/4 487/5/4 493/5/4
f 493/5/4 485/5/4 494/5/4
f 494/5/4 485/5/4 495/5/4
f 498/8/5 497/8/5 496/8/5
f 499/8/5 497/8/5 498/8/5
f 502/5/5 501/5/5 500/5/5
f 503/5/5 501/5/5 502/5/5
f 504/5/5 502/5/5 500/5/5
f 505/5/5 501/5/5 503/5/5
f 506/5/5 504/5/5 500/5/5
f 506/5/5 505/5/5 504/5/5
f 507/5/5 501/5/5 505/5/5
f 507/5/5 505/5/5 506/5/5
f 511/5/5 509/5/5 508/5/5
f 512/5/5 509/5/5 511/5/5
f 514/5/5 511/5/5 510/5/5
f 514/5/5 513/5/5 512/5/5
f 514/5/5 512/5/5 511/5/5
f 515/5/5 513/5/5 514/5/5
f 516/5/5 514/5/5 510/5/5
f 517/5/5 514/5/5 516/5/5
f 518/5/5 513/5/5 515/5/5
f 519/5/5 513/5/5 518/5/5
f 522/5/5 521/5/5 520/5/5
f 523/5/5 521/5/5 522/5/5
f 529/5/5 525/5/5 524/5/5
f 530/5/5 525/5/5 529/5/5
f 531/5/5 527/5/5 526/5/5
f 532/5/5 527/5/5 531/5/5
f 534/5/5 529/5/5 528/5/5
f 535/5/5 529/5/5 534/5/5
f 536/5/5 533/5/5 532/5/5
f 537/5/5 533/5/5 536/5/5
f 541/5/5 539/5/5 538/5/5
f 542/5/5 539/5/5 541/5/5
f 544/5/5 541/5/5 540/5/5
f 545/5/5 541/5/5 544/5/5
f 546/5/5 543/5/5 542/5/5
f 547/5/5 543/5/5 546/5/5
f 550/1/5 549/1/5 548/1/5
f 551/1/5 549/1/5 550/1/5
f 552/1/5 549/1/5 551/1/5
f 553/1/5 549/1/5 552/1/5
f 554/1/5 549/1/5 553/1/5
f 555/1/5 549/1/5 554/1/5
f 556/1/5 550/1/5 548/1/5
f 557/1/5 550/1/5 556/1/5
f 558/1/5 549/1/5 555/1/5
f 559/1/5 549/1/5 558/1/5
f 564/1/5 561/1/5 560/1/5
f 565/1/5 563/1/5 562/1/5
f 566/1/5 564/1/5 560/1/5
f 566/1/5 565/1/5 564/1/5
f 567/1/5 563/1/5 565/1/5
f 567/1/5 565/1/5 566/1/5
f 572/11/5 569/11/5 568/11/5
f 573/11/5 571/11/5 570/11/5
f 574/11/5 572/11/5 568/11/5
f 574/11/5 573/11/5 572/11/5
f 575/11/5 571/11/5 573/11/5
f 575/11/5 573/11/5 574/11/5
f 580/11/5 577/11/5 576/11/5
f 581/11/5 577/11/5 580/11/5
f 582/11/5 579/11/5 578/11/5
f 583/11/5 579/11/5 582/11/5
f 588/11/5 585/11/5 584/11/5
f 589/11/5 585/11/5 588/11/5
f 590/11/5 587/11/5 586/11/5
f 591/11/5 587/11/5 590/11/5
f 596/11/5 593/11/5 592/11/5
f 597/11/5 593/11/5 596/11/5
f 598/11/5 595/11/5 594/11/5
f 599/11/5 595/11/5 598/11/5
f 600/11/5 596/11/5 592/11/5
f 601/11/5 596/11/5 600/11/5
f 602/11/5 595/11/5 599/11/5
f 603/11/5 595/11/5 602/11/5
f 608/11/5 605/11/5 604/11/5
f 609/11/5 605/11/5 608/11/5
f 610/11/5 607/11/5 606/11/5
f 611/11/5 607/11/5 610/11/5
f 614/11/5 613/11/5 612/11/5
f 615/11/5 613/11/5 614/11/5
f 616/11/5 614/11/5 612/11/5
f 617/11/5 613/11/5 615/11/5
f 618/11/5 616/11/5 612/11/5
f 618/11/5 617/11/5 616/11/5
f 619/11/5 613/11/5 617/11/5
f 619/11/5 617/11/5 618/11/5
f 620/5/6 621/5/6 622/5/6
f 622/5/6 621/5/6 623/5/6
f 620/5/6 622/5/6 624/5/6
f 624/5/6 622/5/6 625/5/6
f 623/5/6 621/5/6 626/5/6
f 626/5/6 621/5/6 627/5/6
f 620/5/6 624/5/6 628/5/6
f 627/5/6 621/5/6 631/5/6
f 628/5/6 629/5/6 632/5/6
f 630/5/6 631/5/6 633/5/6
f 628/5/6 632/5/6 634/5/6
f 632/5/6 633/5/6 634/5/6
f 620/5/6 628/5/6 634/5/6
f 633/5/6 631/5/6 635/5/6
f 634/5/6 633/5/6 635/5/6
f 631/5/6 621/5/6 635/5/6
f 636/5/6 637/5/6 639/5/6
f 639/5/6 637/5/6 640/5/6
f 638/5/6 639/5/6 642/5/6
f 642/5/6 639/5/6 643/5/6
f 640/5/6 641/5/6 644/5/6
f 644/5/6 641/5/6 645/5/6
f 646/5/6 647/5/6 649/5/6
f 649/5/6 647/5/6 650/5/6
f 648/5/6 649/5/6 652/5/6
f 650/5/6 651/5/6 652/5/6
f 649/5/6 650/5/6 652/5/6
f 652/5/6 651/5/6 653/5/6
f 654/5/6 655/5/6 657/5/6
f 657/5/6 655/5/6 658/5/6
f 658/5/6 655/5/6 659/5/6
f 659/5/6 655/5/6 660/5/6
f 656/5/6 657/5/6 663/5/6
f 657/5/6 658/5/6 663/5/6
f 663/5/6 658/5/6 664/5/6
f 664/5/6 658/5/6 665/5/6
f 659/5/6 660/5/6 666/5/6
f 660/5/6 661/5/6 666/5/6
f 666/5/6 661/5/6 667/5/6
f 667/5/6 661/5/6 668/5/6
f 663/5/6 664/5/6 671/5/6
f 662/5/6 663/5/6 671/5/6
f 671/5/6 664/5/6 672/5/6
f 672/5/6 664/5/6 673/5/6
f 668/5/6 669/5/6 674/5/6
f 667/5/6 668/5/6 674/5/6
f 674/5/6 669/5/6 675/5/6
f 675/5/6 669/5/6 676/5/6
f 671/5/6 672/5/6 678/5/6
f 670/5/6 671/5/6 678/5/6
f 678/5/6 672/5/6 679/5/6
f 676/5/6 677/5/6 680/5/6
f 675/5/6 676/5/6 680/5/6
f 680/5/6 677/5/6 681/5/6
f 670/5/6 678/5/6 682/5/6
f 681/5/6 677/5/6 683/5/6
f 670/5/6 682/5/6 684/5/6
f 682/5/6 683/5/6 684/5/6
f 683/5/6 677/5/6 685/5/6
f 684/5/6 683/5/6 685/5/6
f 686/11/6 687/11/6 690/11/6
f 690/11/6 687/11/6 691/11/6
f 688/11/6 689/11/6 692/11/6
f 692/11/6 689/11/6 693/11/6
f 686/11/6 690/11/6 694/11/6
f 693/11/6 689/11/6 695/11/6
f 686/11/6 694/11/6 696/11/6
f 694/11/6 695/11/6 696/11/6
f 695/11/6 689/11/6 697/11/6
f 696/11/6 695/11/6 697/11/6
f 698/11/6 699/11/6 700/11/6
f 700/11/6 699/11/6 701/11/6
f 698/11/6 700/11/6 702/11/6
f 701/11/6 699/11/6 703/11/6
f 698/11/6 702/11/6 704/11/6
f 702/11/6 703/11/6 704/11/6
f 703/11/6 699/11/6 705/11/6
f 704/11/6 703/11/6 705/11/6
f 706/11/6 707/11/6 708/11/6
f 708/11/6 707/11/6 709/11/6
